<?xml version="1.0" encoding="utf-8"?>
<!-- Generator: Adobe Illustrator 27.0.0, SVG Export Plug-In . SVG Version: 6.00 Build 0)  -->
<svg version="1.1" id="Layer_1" xmlns="http://www.w3.org/2000/svg" xmlns:xlink="http://www.w3.org/1999/xlink" x="0px" y="0px"
	 viewBox="0 0 24 24" style="enable-background:new 0 0 24 24;" xml:space="preserve">
<style type="text/css">
	.st0{fill:#2D3A80;}
</style>
<path class="st0" d="M6,20c-0.5,0-1-0.2-1.4-0.6S4,18.5,4,18s0.2-1,0.6-1.4S5.5,16,6,16s1,0.2,1.4,0.6S8,17.5,8,18s-0.2,1-0.6,1.4
	S6.6,20,6,20z M12,20c-0.6,0-1-0.2-1.4-0.6S10,18.5,10,18s0.2-1,0.6-1.4S11.4,16,12,16s1,0.2,1.4,0.6S14,17.5,14,18s-0.2,1-0.6,1.4
	S12.6,20,12,20z M18,20c-0.5,0-1-0.2-1.4-0.6S16,18.5,16,18s0.2-1,0.6-1.4S17.5,16,18,16c0.6,0,1,0.2,1.4,0.6S20,17.5,20,18
	s-0.2,1-0.6,1.4S18.6,20,18,20z M6,14c-0.5,0-1-0.2-1.4-0.6S4,12.6,4,12s0.2-1,0.6-1.4S5.5,10,6,10s1,0.2,1.4,0.6S8,11.4,8,12
	s-0.2,1-0.6,1.4S6.6,14,6,14z M12,14c-0.6,0-1-0.2-1.4-0.6S10,12.6,10,12s0.2-1,0.6-1.4S11.4,10,12,10s1,0.2,1.4,0.6S14,11.4,14,12
	s-0.2,1-0.6,1.4S12.6,14,12,14z M18,14c-0.5,0-1-0.2-1.4-0.6C16.2,13,16,12.6,16,12s0.2-1,0.6-1.4C17,10.2,17.5,10,18,10
	c0.6,0,1,0.2,1.4,0.6S20,11.4,20,12s-0.2,1-0.6,1.4S18.6,14,18,14z M6,8C5.5,8,5,7.8,4.6,7.4S4,6.5,4,6s0.2-1,0.6-1.4S5.5,4,6,4
	s1,0.2,1.4,0.6S8,5.4,8,6S7.8,7,7.4,7.4S6.6,8,6,8z M12,8c-0.6,0-1-0.2-1.4-0.6C10.2,7,10,6.5,10,6s0.2-1,0.6-1.4
	C11,4.2,11.4,4,12,4s1,0.2,1.4,0.6C13.8,5,14,5.4,14,6s-0.2,1-0.6,1.4C13,7.8,12.6,8,12,8z M18,8c-0.5,0-1-0.2-1.4-0.6S16,6.5,16,6
	s0.2-1,0.6-1.4S17.5,4,18,4c0.6,0,1,0.2,1.4,0.6S20,5.4,20,6s-0.2,1-0.6,1.4S18.6,8,18,8z"/>
</svg>
