<svg width="24" height="24" viewBox="0 0 24 24" fill="none" xmlns="http://www.w3.org/2000/svg">
<path d="M6 20C5.5 20 5 19.8 4.6 19.4C4.2 19 4 18.5 4 18C4 17.5 4.2 17 4.6 16.6C5 16.2 5.5 16 6 16C6.5 16 7 16.2 7.4 16.6C7.8 17 8 17.5 8 18C8 18.5 7.8 19 7.4 19.4C7 19.8 6.6 20 6 20ZM12 20C11.4 20 11 19.8 10.6 19.4C10.2 19 10 18.5 10 18C10 17.5 10.2 17 10.6 16.6C11 16.2 11.4 16 12 16C12.6 16 13 16.2 13.4 16.6C13.8 17 14 17.5 14 18C14 18.5 13.8 19 13.4 19.4C13 19.8 12.6 20 12 20ZM18 20C17.5 20 17 19.8 16.6 19.4C16.2 19 16 18.5 16 18C16 17.5 16.2 17 16.6 16.6C17 16.2 17.5 16 18 16C18.6 16 19 16.2 19.4 16.6C19.8 17 20 17.5 20 18C20 18.5 19.8 19 19.4 19.4C19 19.8 18.6 20 18 20ZM6 14C5.5 14 5 13.8 4.6 13.4C4.2 13 4 12.6 4 12C4 11.4 4.2 11 4.6 10.6C5 10.2 5.5 10 6 10C6.5 10 7 10.2 7.4 10.6C7.8 11 8 11.4 8 12C8 12.6 7.8 13 7.4 13.4C7 13.8 6.6 14 6 14ZM12 14C11.4 14 11 13.8 10.6 13.4C10.2 13 10 12.6 10 12C10 11.4 10.2 11 10.6 10.6C11 10.2 11.4 10 12 10C12.6 10 13 10.2 13.4 10.6C13.8 11 14 11.4 14 12C14 12.6 13.8 13 13.4 13.4C13 13.8 12.6 14 12 14ZM18 14C17.5 14 17 13.8 16.6 13.4C16.2 13 16 12.6 16 12C16 11.4 16.2 11 16.6 10.6C17 10.2 17.5 10 18 10C18.6 10 19 10.2 19.4 10.6C19.8 11 20 11.4 20 12C20 12.6 19.8 13 19.4 13.4C19 13.8 18.6 14 18 14ZM6 8C5.5 8 5 7.8 4.6 7.4C4.2 7 4 6.5 4 6C4 5.5 4.2 5 4.6 4.6C5 4.2 5.5 4 6 4C6.5 4 7 4.2 7.4 4.6C7.8 5 8 5.4 8 6C8 6.6 7.8 7 7.4 7.4C7 7.8 6.6 8 6 8ZM12 8C11.4 8 11 7.8 10.6 7.4C10.2 7 10 6.5 10 6C10 5.5 10.2 5 10.6 4.6C11 4.2 11.4 4 12 4C12.6 4 13 4.2 13.4 4.6C13.8 5 14 5.4 14 6C14 6.6 13.8 7 13.4 7.4C13 7.8 12.6 8 12 8ZM18 8C17.5 8 17 7.8 16.6 7.4C16.2 7 16 6.5 16 6C16 5.5 16.2 5 16.6 4.6C17 4.2 17.5 4 18 4C18.6 4 19 4.2 19.4 4.6C19.8 5 20 5.4 20 6C20 6.6 19.8 7 19.4 7.4C19 7.8 18.6 8 18 8Z" fill="#111111"/>
</svg>
