<svg xmlns="http://www.w3.org/2000/svg" viewBox="0 0 227.3 152.32" id="" class="svg replaced-svg"><defs><style>.cls-1{opacity:0.1;}.cls-2{fill:none;stroke:#fff;stroke-linejoin:round;stroke-width:2px;}</style></defs><title>capabilityIcon4</title><g id="Layer_2" data-name="Layer 2"><g id="Layer_1-2" data-name="Layer 1"><g class="cls-1"><path class="cls-2" d="M71.8,24.25,90.53,65.49l43,3.85a3.34,3.34,0,0,1,2,5.7L104,106.42l7.92,40.93a3.33,3.33,0,0,1-4.78,3.6L68.76,131.61,30.38,150.8a3.31,3.31,0,0,1-4.73-3.65l7.92-40.73L2,75a3.35,3.35,0,0,1,2-5.7l43-3.85L65.72,24.25A3.35,3.35,0,0,1,71.8,24.25Z"></path><path class="cls-2" d="M106,50.64l15.55-34.19a2.77,2.77,0,0,1,5,0l15.55,34.19,35.58,3.2a2.76,2.76,0,0,1,1.69,4.7l-26.16,26,6.53,33.89a2.75,2.75,0,0,1-3.94,3l-31.8-16"></path><path class="cls-2" d="M152.08,36.8,167.63,2.61a2.77,2.77,0,0,1,5,0L188.21,36.8,223.8,40a2.76,2.76,0,0,1,1.69,4.7l-26.16,26,6.53,33.89a2.75,2.75,0,0,1-3.94,3l-31.79-16"></path></g></g></g></svg>