<svg xmlns="http://www.w3.org/2000/svg" viewBox="0 0 153.68 153.68" id="" class="svg replaced-svg"><defs><style>.cls-1{opacity:0.1;}.cls-2{fill:none;stroke:#fff;stroke-linecap:round;stroke-linejoin:round;stroke-width:2px;}</style></defs><title>capabilityIcon1</title><g id="Layer_2" data-name="Layer 2"><g id="Layer_1-2" data-name="Layer 1"><g class="cls-1"><path class="cls-2" d="M70.24,129.77a1.9,1.9,0,0,1-.41,2.07l-1.91,1.91a1.89,1.89,0,0,0,0,2.68l8,8a1.89,1.89,0,0,0,2.68,0l1.91-1.91a1.9,1.9,0,0,1,2.07-.41l10.07,4.17a1.91,1.91,0,0,1,1.17,1.76v2.7a1.89,1.89,0,0,0,1.9,1.9h11.39a1.89,1.89,0,0,0,1.9-1.9v-2.7a1.9,1.9,0,0,1,1.17-1.76l10.07-4.17a1.9,1.9,0,0,1,2.07.41l1.91,1.91a1.89,1.89,0,0,0,2.68,0l8-8a1.89,1.89,0,0,0,0-2.68l-1.91-1.91a1.9,1.9,0,0,1-.41-2.07l4.17-10.07a1.91,1.91,0,0,1,1.76-1.17h2.7a1.89,1.89,0,0,0,1.9-1.9V105.24a1.89,1.89,0,0,0-1.9-1.9h-2.7a1.9,1.9,0,0,1-1.76-1.17l-4.17-10.07a1.9,1.9,0,0,1,.41-2.07L135,88.13a1.89,1.89,0,0,0,0-2.68l-8-8a1.89,1.89,0,0,0-2.68,0l-1.91,1.91a1.9,1.9,0,0,1-2.07.41"></path><path class="cls-2" d="M110.93,92.64A20.32,20.32,0,1,1,83.16,120.4"></path><path class="cls-2" d="M120.53,64.2h5.07a1.68,1.68,0,0,0,1.69-1.66v-1a1.67,1.67,0,0,1,1-1.54l6.39-2.6a1.72,1.72,0,0,1,1.84.36l.7.69a1.71,1.71,0,0,0,2.39,0l7.18-7.05a1.64,1.64,0,0,0,0-2.35l-.71-.69a1.63,1.63,0,0,1-.36-1.81l2.65-6.28a1.69,1.69,0,0,1,1.56-1h1a1.68,1.68,0,0,0,1.69-1.66v-10A1.68,1.68,0,0,0,151,25.95h-1a1.69,1.69,0,0,1-1.56-1l-2.65-6.28a1.65,1.65,0,0,1,.36-1.81l.71-.69a1.64,1.64,0,0,0,0-2.35l-7.18-7.05a1.71,1.71,0,0,0-2.39,0l-.7.69a1.71,1.71,0,0,1-1.84.36l-6.39-2.6a1.66,1.66,0,0,1-1-1.54v-1A1.68,1.68,0,0,0,125.61,1H115.46a1.68,1.68,0,0,0-1.69,1.66v1a1.67,1.67,0,0,1-1,1.54l-6.39,2.6a1.72,1.72,0,0,1-1.84-.36l-.7-.69a1.71,1.71,0,0,0-2.39,0L95.8,12.22"></path><path class="cls-2" d="M115,44.37a14.76,14.76,0,0,0,5,.87c7.59,0,13.74-5.66,13.74-12.64S127.57,20,120,20a14.06,14.06,0,0,0-11.54,5.78"></path><path class="cls-2" d="M106,54.43h-3.47a2.44,2.44,0,0,1-2.26-1.51L94.9,40a2.44,2.44,0,0,1,.53-2.66l2.46-2.46a2.45,2.45,0,0,0,0-3.46L87.53,21a2.45,2.45,0,0,0-3.46,0l-2.46,2.46A2.44,2.44,0,0,1,79,24L66,18.65a2.45,2.45,0,0,1-1.51-2.26V12.92A2.44,2.44,0,0,0,62,10.48H47.39A2.44,2.44,0,0,0,45,12.92V16.4a2.44,2.44,0,0,1-1.51,2.26L30.48,24a2.44,2.44,0,0,1-2.66-.53L25.37,21a2.45,2.45,0,0,0-3.46,0L11.55,31.39a2.45,2.45,0,0,0,0,3.46L14,37.3A2.44,2.44,0,0,1,14.55,40l-5.37,13a2.45,2.45,0,0,1-2.26,1.51H3.44A2.44,2.44,0,0,0,1,56.87V71.53A2.44,2.44,0,0,0,3.44,74H6.92a2.44,2.44,0,0,1,2.26,1.51l5.37,13A2.44,2.44,0,0,1,14,91.1l-2.46,2.46a2.45,2.45,0,0,0,0,3.46l10.36,10.36a2.45,2.45,0,0,0,3.46,0l2.46-2.46a2.45,2.45,0,0,1,2.66-.53l13,5.37A2.45,2.45,0,0,1,45,112v3.47a2.44,2.44,0,0,0,2.44,2.44H62a2.44,2.44,0,0,0,2.44-2.44V112A2.44,2.44,0,0,1,66,109.75l13-5.37a2.44,2.44,0,0,1,2.66.53l2.46,2.46a2.45,2.45,0,0,0,3.46,0L97.89,97a2.45,2.45,0,0,0,0-3.46L95.43,91.1a2.44,2.44,0,0,1-.53-2.66l5.37-13A2.45,2.45,0,0,1,102.53,74H106a2.44,2.44,0,0,0,2.44-2.44V56.87A2.44,2.44,0,0,0,106,54.43Z"></path><path class="cls-2" d="M54.72,89.48A25.28,25.28,0,1,0,29.44,64.2,25.28,25.28,0,0,0,54.72,89.48Z"></path></g></g></g></svg>