<svg xmlns="http://www.w3.org/2000/svg" viewBox="0 0 159.17 153.13" id="" class="svg replaced-svg"><defs><style>.cls-1{opacity:0.1;}.cls-2,.cls-3{fill:none;stroke:#fff;stroke-width:2px;}.cls-2{stroke-linejoin:round;}.cls-3{stroke-miterlimit:10;}</style></defs><title>capabilityIcon3</title><g id="Layer_2" data-name="Layer 2"><g id="Layer_1-2" data-name="Layer 1"><g class="cls-1"><path class="cls-2" d="M35.17,86.87v30.91"></path><path class="cls-2" d="M76.17,86.87v30.91"></path><path class="cls-2" d="M55.67,107.48a20.61,20.61,0,1,0-20.5-20.61A20.55,20.55,0,0,0,55.67,107.48Z"></path><path class="cls-3" d="M110.33,31.91V49.09h20.5V31.91"></path><path class="cls-3" d="M120.58,35.35A17.17,17.17,0,1,0,103.5,18.17,17.13,17.13,0,0,0,120.58,35.35Z"></path><path class="cls-3" d="M130.83,49.09h3.42l10.25,10.3L134.25,73.13"></path><path class="cls-3" d="M110.33,49.09h-3.42L96.67,59.39l10.25,13.74"></path><path class="cls-2" d="M31.75,45.65A17.17,17.17,0,1,0,14.67,28.48,17.13,17.13,0,0,0,31.75,45.65Z"></path><path class="cls-2" d="M96.67,7.87,42,14.74"></path><path class="cls-2" d="M96.67,28.48,45.42,38.78"></path><path class="cls-2" d="M24.92,52.52,38.58,73.13"></path><path class="cls-2" d="M45.42,49.09,59.08,66.26"></path><path class="cls-2" d="M103.5,124.65h34.17V90.3H103.5Z"></path><path class="cls-2" d="M144.5,138.39h-6.83"></path><path class="cls-2" d="M21.5,138.39H14.67"></path><path class="cls-2" d="M42,138.39H35.17"></path><path class="cls-2" d="M62.5,138.39H55.67"></path><path class="cls-2" d="M83,138.39H76.17"></path><path class="cls-2" d="M103.5,138.39H96.67"></path><path class="cls-2" d="M124,138.39h-6.83"></path><path class="cls-2" d="M158.17,138.39a13.7,13.7,0,0,0-13.67-13.74H14.67a13.74,13.74,0,0,0,0,27.48H144.5A13.7,13.7,0,0,0,158.17,138.39Z"></path></g></g></g></svg>