<svg xmlns="http://www.w3.org/2000/svg" viewBox="0 0 153.56 153.55" id="" class="svg replaced-svg"><defs><style>.cls-1{opacity:0.1;}.cls-2{fill:none;stroke:#fff;stroke-linecap:round;stroke-linejoin:round;stroke-width:2px;}</style></defs><title>capabilityIcon2</title><g id="Layer_2" data-name="Layer 2"><g id="Layer_1-2" data-name="Layer 1"><g class="cls-1"><path class="cls-2" d="M139.71,94.46a4.89,4.89,0,0,1,4.52-3h3.44a4.89,4.89,0,0,0,4.89-4.89V67a4.89,4.89,0,0,0-4.89-4.89h-3.44a4.89,4.89,0,0,1-4.52-3l-5.93-14.31a4.9,4.9,0,0,1,1.06-5.33L137.27,37a4.89,4.89,0,0,0,0-6.91L123.44,16.28a4.89,4.89,0,0,0-6.91,0l-2.43,2.43a4.88,4.88,0,0,1-5.33,1.06L94.46,13.84a4.89,4.89,0,0,1-3-4.52V5.89A4.89,4.89,0,0,0,86.55,1H67a4.89,4.89,0,0,0-4.89,4.89V9.33a4.89,4.89,0,0,1-3,4.52L44.78,19.77a4.9,4.9,0,0,1-5.33-1.06L37,16.28a4.89,4.89,0,0,0-6.91,0L16.28,30.11a4.89,4.89,0,0,0,0,6.91l2.43,2.43a4.89,4.89,0,0,1,1.06,5.33L13.84,59.09a4.89,4.89,0,0,1-4.52,3H5.89A4.89,4.89,0,0,0,1,67V86.55a4.89,4.89,0,0,0,4.89,4.89H9.33a4.89,4.89,0,0,1,4.52,3l5.93,14.31a4.9,4.9,0,0,1-1.06,5.33l-2.43,2.43a4.89,4.89,0,0,0,0,6.91l13.83,13.83a4.89,4.89,0,0,0,6.91,0l2.43-2.43a4.88,4.88,0,0,1,5.33-1.06l14.31,5.93a4.89,4.89,0,0,1,3,4.51v3.44A4.89,4.89,0,0,0,67,152.55H86.55a4.89,4.89,0,0,0,4.89-4.89v-3.44a4.89,4.89,0,0,1,3-4.51"></path><path class="cls-2" d="M96.48,113.33A41.56,41.56,0,0,1,37.16,64.57l21.69,22,13,0L86.56,71.88c0-5.28,0-7.71,0-13l-21.75-22a41.55,41.55,0,0,1,48.77,59.3"></path><path class="cls-2" d="M116.62,88.94l30.21,30.23a19.55,19.55,0,1,1-27.65,27.65L88.91,116.46"></path><path class="cls-2" d="M138.69,124.86a9.78,9.78,0,1,1-13.83,0A9.78,9.78,0,0,1,138.69,124.86Z"></path></g></g></g></svg>