<svg width="48" height="48" viewBox="0 0 48 48" xmlns="http://www.w3.org/2000/svg">
    <g fill="none" fill-rule="evenodd">
        <path d="M0 48h48V0H0z"/>
        <path d="M0 48h48V0H0z"/>
        <path d="m10.174 24.466 2.556-6.71a4.736 4.736 0 0 1 4.459-3.143h13.622a4.736 4.736 0 0 1 4.46 3.143l2.555 6.71" fill="#E2E8EE"/>
        <path d="M34.825 24.085a5.412 5.412 0 0 1 5.412 5.412v6.09c0 .246-.033.485-.095.712l.095-.036v5.412c0 .714-.552 1.298-1.252 1.35l-.1.003h-2.707a1.353 1.353 0 0 1-1.35-1.252l-.003-.1v-3.384h-21.65v3.383c0 .713-.552 1.298-1.252 1.35l-.1.003H9.115a1.353 1.353 0 0 1-1.35-1.252l-.003-.101v-5.412l.095.036a2.71 2.71 0 0 1-.095-.713v-6.089a5.412 5.412 0 0 1 5.412-5.412h21.65z" fill="#FFF"/>
        <g stroke="#16171D" stroke-linecap="round" stroke-linejoin="round">
            <path d="M10.47 38.292a2.706 2.706 0 0 1-2.707-2.706v-6.089a5.412 5.412 0 0 1 5.412-5.412h21.65a5.412 5.412 0 0 1 5.412 5.412v6.09a2.706 2.706 0 0 1-2.706 2.705H10.469"/>
            <path d="M7.763 36.263v5.412c0 .747.605 1.353 1.353 1.353h2.706c.748 0 1.353-.606 1.353-1.353v-3.383M34.825 38.292v3.383c0 .747.606 1.353 1.353 1.353h2.706c.747 0 1.353-.606 1.353-1.353v-5.412M10.174 24.466l2.556-6.71a4.736 4.736 0 0 1 4.459-3.143h13.622a4.736 4.736 0 0 1 4.46 3.143l2.555 6.71M32.795 32.88h2.706c.747 0 1.354-.606 1.354-1.353v-1.353c0-.747-.607-1.353-1.354-1.353h-2.706a2.03 2.03 0 0 0 0 4.06zM15.205 28.82h-2.706c-.747 0-1.354.607-1.354 1.354v1.353c0 .747.607 1.353 1.354 1.353h2.706a2.03 2.03 0 0 0 0-4.06zM10.47 24.762l-1.355-1.354M7.117 20.026h.615c.764 0 1.384.619 1.384 1.384v1.999h-2.69a.692.692 0 0 1-.693-.692V21.41c0-.765.62-1.384 1.384-1.384zM37.531 24.762l1.353-1.354M40.883 20.026h-.615c-.764 0-1.384.619-1.384 1.384v1.999h2.69c.383 0 .693-.31.693-.692V21.41c0-.765-.62-1.384-1.384-1.384z"/>
        </g>
        <g stroke="#B70F28" stroke-linecap="round" stroke-linejoin="round">
            <path d="M15.516 6.02h16.307M15.516 6.02l1.344-1.344M32.104 9.473H15.797M32.104 9.473 30.76 8.129M32.104 9.473l-1.344 1.344M15.516 6.02l1.344 1.345"/>
        </g>
    </g>
</svg>
