<svg width="48" height="48" viewBox="0 0 48 48" xmlns="http://www.w3.org/2000/svg">
    <g fill="none" fill-rule="evenodd">
        <path d="M0 48h48V0H0z"/>
        <path d="M0 48h48V0H0z"/>
        <g fill="#FFF">
            <path d="M6.918 39.754v.896a2.69 2.69 0 0 0 2.69 2.689h.897a2.686 2.686 0 0 0 2.688-2.685v-.9M27.534 39.754v.896a2.69 2.69 0 0 0 2.69 2.689h.897a2.686 2.686 0 0 0 2.688-2.685v-.9M22.9 26.298l-14.187.01a5.378 5.378 0 0 0-5.379 5.38v6.273a1.79 1.79 0 0 0 1.789 1.792H35.6c.99.002 1.793-.8 1.795-1.788V31.688c0-.624-.107-1.242-.32-1.828l-.31-.63"/>
            <path d="M44.667 17.503c0 6.99-5.669 12.66-12.66 12.66-6.99 0-12.659-5.67-12.659-12.66 0-6.991 5.668-12.66 12.66-12.66 6.99 0 12.659 5.669 12.659 12.66z"/>
        </g>
        <path d="m8.712 26.309 2.349-4.697a4.474 4.474 0 0 1 4.003-2.474h4.404l.565 2.474.497 1.225 1.174 2.006.987 1.328v.138H8.712z" fill="#E2E8EE"/>
        <g stroke="#16171D" stroke-linecap="round" stroke-linejoin="round">
            <path d="M6.918 39.754v.896a2.69 2.69 0 0 0 2.69 2.689h.897a2.686 2.686 0 0 0 2.688-2.685v-.9M27.534 39.754v.896a2.69 2.69 0 0 0 2.69 2.689h.897a2.686 2.686 0 0 0 2.688-2.685v-.9M10.504 33.606H6.919M8.712 26.309l2.349-4.697a4.474 4.474 0 0 1 4.003-2.474h4.404"/>
            <path d="m22.9 26.298-14.187.01a5.378 5.378 0 0 0-5.379 5.38v6.273a1.79 1.79 0 0 0 1.789 1.792H35.6c.99.002 1.793-.8 1.795-1.788V31.688c0-.624-.107-1.242-.32-1.828l-.31-.63M9.045 26.298l-.357-1.899a1.86 1.86 0 0 0-1.6-1.012H4.274"/>
            <path d="M44.667 17.503c0 6.99-5.669 12.66-12.66 12.66-6.99 0-12.659-5.67-12.659-12.66 0-6.991 5.668-12.66 12.66-12.66 6.99 0 12.659 5.669 12.659 12.66z"/>
        </g>
        <g stroke="#B70F28" stroke-linecap="round" stroke-linejoin="round">
            <path d="m26.53 13.683 2.21 7.029a.539.539 0 0 0 1.007.054l2.29-5.19 2.236 5.418a.537.537 0 0 0 1.01-.051l2.202-7.265M24.944 17.763h2.546M36.573 17.765h2.546"/>
        </g>
    </g>
</svg>
