<svg width="48" height="48" viewBox="0 0 48 48" xmlns="http://www.w3.org/2000/svg">
    <g fill="none" fill-rule="evenodd">
        <path d="m33.108 17.682.154.302.267.547.403.853.533 1.156.311.684a4.19 4.19 0 0 0 3.146 2.412l1.97.327 1.463.254.855.156.537.105.293.062c1.122.282 1.96 1.358 1.96 2.918v4.336a3.082 3.082 0 0 1-3.08 3.082H13.956V15.698h16.542l.127.013.096.015.115.023.064.016.14.04c.563.175 1.43.642 2.068 1.877zM13.956 24.584l-.002 11.576a2.832 2.832 0 0 1-2.838 2.836A2.835 2.835 0 0 1 8.28 36.16V24.446" fill="#FFF"/>
        <path d="M39.431 34.875a4.123 4.123 0 1 1-8.245-.001 4.123 4.123 0 0 1 8.245.001z" fill="#FFF"/>
        <path stroke="#FFF" d="M13.955 34.875V24.446"/>
        <path d="M8.28 9.006v4.912c0 .672.543 1.216 1.215 1.216h3.244c.67 0 1.214-.544 1.214-1.216V9.002c3.718 1.386 6.144 5.418 4.994 9.802-.73 2.786-3.018 5.01-5.82 5.682C7.773 25.772 3 21.748 3 16.61a8.118 8.118 0 0 1 5.28-7.606v.002z" fill="#FFF"/>
        <g fill="#E2E8EE">
            <path d="m13.956 24.584-.002 11.576a2.832 2.832 0 0 1-2.838 2.836A2.835 2.835 0 0 1 8.28 36.16V24.446"/>
        </g>
        <g stroke="#16171D" stroke-linecap="round" stroke-linejoin="round">
            <path d="M14.256 34.875h16.482M19.628 15.698h10.84s1.614 0 2.64 1.984c.402.774 1.098 2.286 1.668 3.542a4.19 4.19 0 0 0 3.146 2.412c1.766.288 4.102.682 5.118.904 1.122.282 1.96 1.358 1.96 2.918v4.336a3.082 3.082 0 0 1-3.08 3.082h-2.01M13.956 24.584l-.002 11.576a2.832 2.832 0 0 1-2.838 2.836A2.835 2.835 0 0 1 8.28 36.16V24.446"/>
            <path d="M8.28 9.006v4.912c0 .672.543 1.216 1.215 1.216h3.244c.67 0 1.214-.544 1.214-1.216V9.002c3.718 1.386 6.144 5.418 4.994 9.802-.73 2.786-3.018 5.01-5.82 5.682C7.773 25.772 3 21.748 3 16.61a8.118 8.118 0 0 1 5.28-7.606v.002z"/>
        </g>
        <g stroke="#B70F28" stroke-linecap="round" stroke-linejoin="round">
            <path d="M39.431 34.875a4.123 4.123 0 1 1-8.245-.001 4.123 4.123 0 0 1 8.245.001z"/>
        </g>
    </g>
</svg>
