<svg width="90" height="80" viewBox="0 0 90 80" xmlns="http://www.w3.org/2000/svg">
    <g fill="none" fill-rule="evenodd">
        <path d="M0 80h90V0H0z"/>
        <path d="M0 80h90V0H0z"/>
        <g fill="#FFF">
            <path d="M5.278 68.983c-.606 0-.982-.562-.732-1.026l.059-.092 3.748-4.998a.651.651 0 0 0 .067-.69l-.067-.107-3.748-5c-.336-.447-.019-1.037.555-1.109l.118-.007h6.735V53.1c0-.677.618-1.227 1.38-1.227h63.234c.764 0 1.38.55 1.38 1.227v2.845h6.41c.606 0 .983.564.732 1.028l-.058.09-3.748 4.997a.654.654 0 0 0-.066.692l.066.107 3.748 4.997c.336.448.018 1.039-.555 1.111l-.118.007h-7.632l-.079.007-71.43.002zM64.09 26.245c5.134 0 9.316 3.627 9.478 8.156l.004.273v16.86H64.09v-4.19H26.045v4.19H16.56v-16.86c0-4.564 4.08-8.281 9.176-8.425l.307-.004h38.045z"/>
        </g>
        <path d="m21.303 26.245 3.96-9.858c1.18-2.935 4.308-4.894 7.815-4.894h23.867c3.508 0 6.635 1.959 7.814 4.894l3.962 9.858" fill="#E2E8EE"/>
        <path d="M76.608 68.974h7.81c.646 0 1.032-.64.673-1.118l-3.748-4.997a.657.657 0 0 1 0-.799l3.748-4.996c.359-.478-.027-1.118-.673-1.118H78M12.013 55.954H5.278c-.646 0-1.031.64-.673 1.117l3.748 4.999c.181.24.181.556 0 .797l-3.748 4.998c-.358.478.027 1.118.673 1.118h14.78" stroke="#16171D" stroke-linecap="round" stroke-linejoin="round"/>
        <path d="M76.627 68.983H13.393c-.762 0-1.38-.55-1.38-1.227V53.1c0-.677.618-1.227 1.38-1.227h63.234c.764 0 1.38.55 1.38 1.227v14.656c0 .677-.616 1.227-1.38 1.227z" stroke="#16171D" stroke-linecap="round" stroke-linejoin="round"/>
        <text font-family="SpoqaHanSansNeo-Medium, Spoqa Han Sans Neo" font-size="10" font-weight="400" fill="#16171D" transform="translate(4.468 11.493)">
                                            <tspan x="19.417" y="50.383">No.1</tspan>
                                        </text>
        <g stroke="#16171D" stroke-linecap="round" stroke-linejoin="round">
            <path d="M73.572 51.534v-16.86c0-4.656-4.245-8.43-9.483-8.43H26.044c-5.238 0-9.483 3.774-9.483 8.43v16.86"/>
            <path d="M26.045 51.534v-4.19h38.044v4.19M21.303 26.245l3.96-9.858c1.18-2.935 4.308-4.894 7.815-4.894h23.867c3.508 0 6.635 1.959 7.814 4.894l3.962 9.858M15.647 20.188h3.739c1.06 0 1.917.762 1.917 1.704v5.028H14.69c-.53 0-.96-.381-.96-.853v-4.175c0-.942.859-1.704 1.918-1.704z"/>
            <path d="M74.376 20.188h-3.739c-1.06 0-1.917.762-1.917 1.704v5.028h6.614c.53 0 .96-.381.96-.853v-4.175c0-.942-.858-1.704-1.918-1.704z"/>
        </g>
        <g stroke="#B70F28" stroke-linecap="round" stroke-linejoin="round">
            <path d="M29.6 34.226h-4.74c-1.31 0-2.372.943-2.372 2.108v2.107c0 1.164 1.062 2.108 2.371 2.108h4.742c1.963 0 3.556-1.416 3.556-3.161 0-1.747-1.593-3.162-3.556-3.162zM60.643 34.226h4.742c1.309 0 2.371.943 2.371 2.108v2.107c0 1.164-1.062 2.108-2.371 2.108h-4.742c-1.963 0-3.556-1.416-3.556-3.161 0-1.747 1.593-3.162 3.556-3.162z"/>
        </g>
    </g>
</svg>
