<svg width="68" height="68" viewBox="0 0 68 68" xmlns="http://www.w3.org/2000/svg">
    <g fill="none" fill-rule="evenodd">
        <path d="M0 68h68V0H0z"/>
        <g fill="#FFF">
            <path d="M9.8 56.318v1.27a3.81 3.81 0 0 0 3.812 3.809h1.27a3.805 3.805 0 0 0 3.809-3.804v-1.275M39.007 56.318v1.27a3.81 3.81 0 0 0 3.811 3.809h1.27a3.805 3.805 0 0 0 3.808-3.804v-1.275"/>
            <path d="m32.44 37.256-20.096.015a7.62 7.62 0 0 0-7.62 7.62v8.887a2.536 2.536 0 0 0 2.533 2.54h43.177a2.538 2.538 0 0 0 2.542-2.534V44.89a7.6 7.6 0 0 0-.453-2.59l-.44-.89"/>
            <path d="M63.278 24.796c0 9.903-8.03 17.934-17.934 17.934-9.904 0-17.934-8.03-17.934-17.934 0-9.904 8.03-17.934 17.934-17.934 9.904 0 17.934 8.03 17.934 17.934z"/>
        </g>
        <path d="m12.342 37.27 3.327-6.653a6.339 6.339 0 0 1 5.672-3.506H27.58l.8 3.506.704 1.736 1.664 2.84 1.398 1.882v.196H12.342z" fill="#E2E8EE"/>
        <g stroke="#16171D" stroke-linecap="round" stroke-linejoin="round">
            <path d="M9.8 56.318v1.27a3.81 3.81 0 0 0 3.812 3.809h1.27a3.805 3.805 0 0 0 3.809-3.804v-1.275M39.007 56.318v1.27a3.81 3.81 0 0 0 3.811 3.809h1.27a3.805 3.805 0 0 0 3.808-3.804v-1.275M14.88 47.608H9.802M12.342 37.27l3.327-6.653a6.339 6.339 0 0 1 5.672-3.506h6.239"/>
            <path d="m32.44 37.256-20.096.015a7.62 7.62 0 0 0-7.62 7.62v8.887a2.536 2.536 0 0 0 2.533 2.54h43.177a2.538 2.538 0 0 0 2.542-2.534V44.89a7.6 7.6 0 0 0-.453-2.59l-.44-.89M12.814 37.256l-.506-2.69a2.636 2.636 0 0 0-2.266-1.434H6.053"/>
            <path d="M63.278 24.796c0 9.903-8.03 17.934-17.934 17.934-9.904 0-17.934-8.03-17.934-17.934 0-9.904 8.03-17.934 17.934-17.934 9.904 0 17.934 8.03 17.934 17.934z"/>
        </g>
        <g stroke="#B70F28" stroke-linecap="round" stroke-linejoin="round">
            <path d="m37.584 19.385 3.13 9.957a.763.763 0 0 0 1.427.077l3.245-7.354 3.167 7.676a.76.76 0 0 0 1.432-.072l3.12-10.292M35.338 25.164h3.606M51.813 25.167h3.606"/>
        </g>
    </g>
</svg>
