<svg width="90" height="80" viewBox="0 0 90 80" xmlns="http://www.w3.org/2000/svg">
    <g fill="none" fill-rule="evenodd">
        <path d="M0 80h90V0H0z"/>
        <g fill="#FFF">
            <path d="M20.556 62.38c-2.7 0-4.89-1.945-4.89-4.345v-9.778c0-4.8 4.378-8.691 9.778-8.691h39.111c5.4 0 9.778 3.891 9.778 8.691v9.778c0 2.4-2.189 4.345-4.889 4.345H20.555"/>
            <path d="M15.667 59.121v8.691c0 1.2 1.093 2.174 2.445 2.174H23c1.35 0 2.444-.974 2.444-2.174V62.38M64.555 62.38v5.433c0 1.2 1.095 2.172 2.445 2.172h4.89c1.35 0 2.443-.972 2.443-2.172V59.12M20.022 40.177l4.617-10.774c1.216-3.027 4.441-5.048 8.056-5.048h24.61c3.615 0 6.84 2.021 8.057 5.048l4.616 10.774M14.5 33.047h1.111c1.38 0 2.5.994 2.5 2.222v3.21H13.25c-.69 0-1.25-.498-1.25-1.11v-2.1c0-1.228 1.119-2.222 2.5-2.222zM75.5 33.047h-1.111c-1.38 0-2.5.994-2.5 2.222v3.21h4.861c.69 0 1.25-.498 1.25-1.11v-2.1c0-1.228-1.119-2.222-2.5-2.222z"/>
        </g>
        <g fill="#E1E8EF">
            <path d="M60.889 53.689h4.889c1.35 0 2.445-.973 2.445-2.173v-2.173c0-1.2-1.095-2.173-2.445-2.173h-4.89c-2.024 0-3.665 1.46-3.665 3.26 0 1.8 1.64 3.259 3.666 3.259zM29.111 47.17h-4.889c-1.35 0-2.445.974-2.445 2.174v2.172c0 1.2 1.095 2.173 2.445 2.173h4.89c2.024 0 3.665-1.46 3.665-3.26 0-1.8-1.64-3.259-3.666-3.259z"/>
        </g>
        <g stroke="#111" stroke-linecap="round" stroke-linejoin="round">
            <path d="m20.022 40.177 4.617-10.774c1.216-3.027 4.441-5.048 8.056-5.048h24.61c3.615 0 6.84 2.021 8.057 5.048l4.616 10.774" fill="#E2E8EE"/>
            <path d="M20.556 62.38c-2.7 0-4.89-1.945-4.89-4.345v-9.778c0-4.8 4.378-8.691 9.778-8.691h39.111c5.4 0 9.778 3.891 9.778 8.691v9.778c0 2.4-2.189 4.345-4.889 4.345H20.555"/>
            <path d="M15.667 59.121v8.691c0 1.2 1.093 2.174 2.445 2.174H23c1.35 0 2.444-.974 2.444-2.174V62.38M64.555 62.38v5.433c0 1.2 1.095 2.172 2.445 2.172h4.89c1.35 0 2.443-.972 2.443-2.172V59.12"/>
            <path d="M60.889 53.689h4.889c1.35 0 2.445-.973 2.445-2.173v-2.173c0-1.2-1.095-2.173-2.445-2.173h-4.89c-2.024 0-3.665 1.46-3.665 3.26 0 1.8 1.64 3.259 3.666 3.259zM29.111 47.17h-4.889c-1.35 0-2.445.974-2.445 2.174v2.172c0 1.2 1.095 2.173 2.445 2.173h4.89c2.024 0 3.665-1.46 3.665-3.26 0-1.8-1.64-3.259-3.666-3.259z" fill="#FFF"/>
            <path d="m20.556 40.652-2.445-2.173M14.5 33.047h1.111c1.38 0 2.5.994 2.5 2.222v3.21H13.25c-.69 0-1.25-.498-1.25-1.11v-2.1c0-1.228 1.119-2.222 2.5-2.222zM69.444 40.652l2.445-2.173M75.5 33.047h-1.111c-1.38 0-2.5.994-2.5 2.222v3.21h4.861c.69 0 1.25-.498 1.25-1.11v-2.1c0-1.228-1.119-2.222-2.5-2.222z"/>
        </g>
        <g stroke="#B70F28" stroke-linecap="round" stroke-linejoin="round">
            <path d="M29.092 12.255h30.576M29.092 12.255l2.52-2.24M60.195 18.01H29.62M60.195 18.01l-2.52-2.24M60.195 18.01l-2.52 2.24M29.092 12.255l2.52 2.241"/>
        </g>
    </g>
</svg>
