<svg width="48" height="48" viewBox="0 0 48 48" xmlns="http://www.w3.org/2000/svg">
    <g fill="none" fill-rule="evenodd">
        <path d="M0 48h48V0H0z"/>
        <g fill="#FFF">
            <path d="M31.586 39.172v-2.205c0-.743-.474-1.401-1.178-1.636l-2.96-.986L24 37.793l-3.448-3.448-2.96.986a1.724 1.724 0 0 0-1.178 1.636v2.205c0 1.143.926 2.07 2.069 2.07h11.035a2.068 2.068 0 0 0 2.068-2.07zM19.172 21.241v-2.205c0-.743-.474-1.401-1.178-1.636l-2.96-.986-3.448 3.448-3.448-3.448-2.959.986A1.724 1.724 0 0 0 4 19.036v2.205c0 1.143.927 2.07 2.07 2.07h11.035a2.068 2.068 0 0 0 2.068-2.07zM44 21.241v-2.205c0-.743-.475-1.401-1.179-1.636l-2.959-.986-3.448 3.448-3.449-3.448-2.958.986a1.724 1.724 0 0 0-1.18 1.636v2.205c0 1.143.927 2.07 2.07 2.07H41.93A2.068 2.068 0 0 0 44 21.24z"/>
        </g>
        <g fill="#E2E8EE">
            <path d="M27.448 29.517a3.448 3.448 0 1 1-6.896 0 3.448 3.448 0 0 1 6.896 0zM15.034 11.586a3.448 3.448 0 1 1-6.895 0 3.448 3.448 0 0 1 6.895 0zM39.862 11.586a3.448 3.448 0 1 1-6.896 0 3.448 3.448 0 0 1 6.896 0z"/>
        </g>
        <g stroke="#16171D" stroke-linejoin="round">
            <path d="M27.448 29.517a3.448 3.448 0 1 1-6.896 0 3.448 3.448 0 0 1 6.896 0zM31.586 39.172v-2.205c0-.743-.474-1.401-1.178-1.636l-2.96-.986L24 37.793l-3.448-3.448-2.96.986a1.724 1.724 0 0 0-1.178 1.636v2.205c0 1.143.926 2.07 2.069 2.07h11.035a2.068 2.068 0 0 0 2.068-2.07zM15.034 11.586a3.448 3.448 0 1 1-6.895 0 3.448 3.448 0 0 1 6.895 0zM19.172 21.241v-2.205c0-.743-.474-1.401-1.178-1.636l-2.96-.986-3.448 3.448-3.448-3.448-2.959.986A1.724 1.724 0 0 0 4 19.036v2.205c0 1.143.927 2.07 2.07 2.07h11.035a2.068 2.068 0 0 0 2.068-2.07zM39.862 11.586a3.448 3.448 0 1 1-6.896 0 3.448 3.448 0 0 1 6.896 0zM44 21.241v-2.205c0-.743-.475-1.401-1.179-1.636l-2.959-.986-3.448 3.448-3.449-3.448-2.958.986a1.724 1.724 0 0 0-1.18 1.636v2.205c0 1.143.927 2.07 2.07 2.07H41.93A2.068 2.068 0 0 0 44 21.24z"/>
        </g>
        <g stroke="#B70F28" stroke-linecap="round" stroke-linejoin="round">
            <path d="M31.15 8.312A17.171 17.171 0 0 0 24 6.76a17.17 17.17 0 0 0-7.15 1.553M34.345 37.789a17.23 17.23 0 0 0 6.768-11.72M6.887 26.069a17.23 17.23 0 0 0 6.768 11.72"/>
        </g>
    </g>
</svg>
