<svg width="68" height="68" viewBox="0 0 68 68" xmlns="http://www.w3.org/2000/svg">
    <g fill="none" fill-rule="evenodd">
        <g fill="#FFF">
            <path d="M29.956 41.795c2.522.343 4.986.35 7.468 0 7.26-.968 10.953-4.884 11.08-11.75v-.009c.091-8-1.26-16.002-4.053-24.004v.01c-.426-1.287-1.177-2.254-2.252-2.902a6.188 6.188 0 0 0-1.442-.622l-.036-.008c-1.516-.333-2.524-.54-4.355-.68a20.028 20.028 0 0 0-1.506-.056l-2.133.001c-.305 0-.62.01-.923.03-2.118.14-3.602.37-5.137.705l-.044.008c-1.864.55-3.092 1.723-3.685 3.524v-.01a75.61 75.61 0 0 0-2.045 6.884c-1.4 5.707-2.066 11.414-2 17.12v.009c.121 6.866 3.809 10.782 11.063 11.75zM36.69 53.089H38.3c1.406 0 2.701-.933 2.99-2.309a2.941 2.941 0 0 0-2.868-3.558h-11.87c-.867 0-1.717.257-2.44.739l-8.084 5.39 5.613 8.982 2.918-1.92a4.397 4.397 0 0 1 2.419-.725h11.42c.984 0 1.957-.197 2.862-.581l12.953-5.49a2.942 2.942 0 0 0 1.587-3.834 2.944 2.944 0 0 0-3.832-1.587l-12.556 4.72"/>
        </g>
        <path d="M17.247 66.352 10.63 55.887a.483.483 0 0 1 .15-.667l4.288-2.712a.483.483 0 0 1 .667.151l6.618 10.464a.484.484 0 0 1-.15.668l-4.287 2.711a.484.484 0 0 1-.669-.15z" fill="#E2E8EE"/>
        <g stroke="#16171D" stroke-linecap="round" stroke-linejoin="round">
            <path d="M30.062 53.182h8.8c1.425 0 2.74-.946 3.033-2.34a2.984 2.984 0 0 0-2.909-3.61H26.951c-.882 0-1.743.262-2.476.75l-8.198 5.466"/>
            <path d="m39.99 53.007 12.734-4.786a2.984 2.984 0 0 1 3.887 1.611A2.984 2.984 0 0 1 55 53.718l-13.136 5.568a7.43 7.43 0 0 1-2.902.59H27.38c-.872 0-1.725.255-2.452.735l-2.96 1.946"/>
            <path d="M17.247 66.352 10.63 55.887a.483.483 0 0 1 .15-.667l4.288-2.712a.483.483 0 0 1 .667.151l6.618 10.464a.484.484 0 0 1-.15.668l-4.287 2.711a.484.484 0 0 1-.669-.15zM29.956 41.795c2.522.343 4.986.35 7.468 0 7.26-.968 10.953-4.884 11.08-11.75v-.009c.091-8-1.26-16.002-4.053-24.004v.01c-.426-1.287-1.177-2.254-2.252-2.902a6.188 6.188 0 0 0-1.442-.622l-.036-.008c-1.516-.333-2.524-.54-4.355-.68a20.028 20.028 0 0 0-1.506-.056l-2.133.001c-.305 0-.62.01-.923.03-2.118.14-3.602.37-5.137.705l-.044.008c-1.864.55-3.092 1.723-3.685 3.524v-.01a75.61 75.61 0 0 0-2.045 6.884c-1.4 5.707-2.066 11.414-2 17.12v.009c.121 6.866 3.809 10.782 11.063 11.75zM30.31 8.34h6.732"/>
        </g>
        <g stroke="#B70F28" stroke-linecap="round" stroke-linejoin="round">
            <path d="M33.685 17.8c1.231 0 2.282.436 3.153 1.307.232.233.433.48.604.739.465.708.696 1.513.694 2.415v2.378h1.775v6.965a2.324 2.324 0 0 1-.712 1.63c-.46.46-1.013.698-1.658.713h-7.72a2.36 2.36 0 0 1-1.667-.712 2.345 2.345 0 0 1-.712-1.658l.01-6.938h1.774V22.26c.002-.902.24-1.707.712-2.415.17-.26.37-.506.603-.74.868-.87 1.916-1.306 3.144-1.306zM38.136 24.64h-8.91"/>
        </g>
    </g>
</svg>
