<svg width="90" height="80" viewBox="0 0 90 80" xmlns="http://www.w3.org/2000/svg">
    <g fill="none" fill-rule="evenodd">
        <path d="M0 80h90V0H0z"/>
        <g fill="#FFF">
            <path d="M59.224 65.287v-3.675c0-1.238-.89-2.336-2.21-2.727l-5.549-1.643L45 62.988l-6.466-5.746-5.547 1.643c-1.32.391-2.212 1.489-2.212 2.727v3.675c0 1.905 1.738 3.448 3.88 3.448h20.69c2.143 0 3.88-1.543 3.88-3.448zM35.948 35.402v-3.675c0-1.238-.89-2.336-2.21-2.727l-5.548-1.643-6.466 5.746-6.466-5.746L9.711 29c-1.32.391-2.212 1.489-2.212 2.727v3.675c0 1.905 1.738 3.448 3.88 3.448h20.69c2.143 0 3.88-1.543 3.88-3.448zM82.5 35.402v-3.675c0-1.238-.89-2.336-2.21-2.727l-5.549-1.643-6.465 5.746-6.466-5.746L56.262 29c-1.32.391-2.21 1.489-2.21 2.727v3.675c0 1.905 1.737 3.448 3.88 3.448h20.69c2.142 0 3.878-1.543 3.878-3.448z"/>
        </g>
        <g fill="#E2E8EE">
            <path d="M51.465 49.195c0 3.176-2.896 5.747-6.465 5.747-3.57 0-6.466-2.571-6.466-5.747 0-3.175 2.897-5.746 6.467-5.746 3.568 0 6.465 2.57 6.465 5.746zM28.19 19.31c0 3.176-2.897 5.747-6.465 5.747-3.57 0-6.467-2.571-6.467-5.747 0-3.175 2.897-5.746 6.467-5.746 3.568 0 6.465 2.57 6.465 5.746zM74.741 19.31c0 3.176-2.896 5.747-6.465 5.747-3.57 0-6.466-2.571-6.466-5.747 0-3.175 2.896-5.746 6.466-5.746 3.57 0 6.465 2.57 6.465 5.746z"/>
        </g>
        <g stroke="#16171D" stroke-linejoin="round">
            <path d="M51.465 49.195c0 3.176-2.896 5.747-6.465 5.747-3.57 0-6.466-2.571-6.466-5.747 0-3.175 2.896-5.746 6.466-5.746 3.57 0 6.465 2.57 6.465 5.746zM59.224 65.287v-3.675c0-1.238-.89-2.336-2.21-2.727l-5.549-1.643L45 62.988l-6.466-5.746-5.547 1.643c-1.32.391-2.212 1.489-2.212 2.727v3.675c0 1.905 1.738 3.448 3.88 3.448h20.69c2.143 0 3.88-1.543 3.88-3.448zM28.19 19.31c0 3.176-2.897 5.747-6.465 5.747-3.57 0-6.467-2.571-6.467-5.747 0-3.175 2.897-5.746 6.467-5.746 3.568 0 6.465 2.57 6.465 5.746zM35.948 35.402v-3.675c0-1.238-.89-2.336-2.21-2.727l-5.548-1.643-6.466 5.746-6.466-5.746L9.711 29c-1.32.391-2.212 1.489-2.212 2.727v3.675c0 1.905 1.738 3.448 3.88 3.448h20.69c2.143 0 3.88-1.543 3.88-3.448zM74.741 19.31c0 3.176-2.896 5.747-6.465 5.747-3.57 0-6.466-2.571-6.466-5.747 0-3.175 2.896-5.746 6.466-5.746 3.57 0 6.465 2.57 6.465 5.746zM82.5 35.402v-3.675c0-1.238-.89-2.336-2.21-2.727l-5.549-1.643-6.465 5.746-6.466-5.746L56.262 29c-1.32.391-2.21 1.489-2.21 2.727v3.675c0 1.905 1.737 3.448 3.88 3.448h20.69c2.142 0 3.878-1.543 3.878-3.448z"/>
        </g>
        <g stroke="#B70F28" stroke-linecap="round" stroke-linejoin="round">
            <path d="M58.407 13.854c-4.085-1.658-8.623-2.59-13.408-2.59-4.783 0-9.32.932-13.406 2.59M64.397 62.981c6.87-4.592 11.617-11.56 12.69-19.533M12.912 43.448c1.074 7.974 5.821 14.941 12.691 19.534"/>
        </g>
    </g>
</svg>
