<svg width="121" height="48" viewBox="0 0 121 48" fill="none" xmlns="http://www.w3.org/2000/svg">
<path d="M52.0111 30.8068L62.1674 19.0726H55.5319L47.1902 29.074V19.0726H41.5433V43.919H47.1902V33.0376L53.6361 41.4153C54.8481 42.9912 56.7236 43.919 58.7007 43.919H62.5533L52.0043 30.8L52.0111 30.8068Z" fill="#DA2631"/>
<path d="M107.39 40.0713V32.7988C107.39 27.5594 105.034 25.1171 99.9759 25.1171C97.9175 25.1171 95.9133 25.6901 94.0243 26.8294L93.8144 26.9591L93.8415 27.3411C93.8821 27.996 94.2342 28.5896 94.7826 28.9443C95.3311 29.2922 95.9878 29.3605 96.5837 29.1217C97.5248 28.7465 98.5201 28.5486 99.4681 28.5486C102.143 28.5486 103.267 29.6061 103.368 32.3008C102.305 32.2531 101.465 32.2531 100.355 32.2531C97.193 32.2531 91.8441 33.5561 91.8441 38.4476C91.8441 42.1862 94.3222 44.3352 98.642 44.3352C101.316 44.3352 102.982 43.0662 103.862 42.1179C104.221 43.1686 105.217 43.9258 106.381 43.9258H107.593L107.532 43.4687C107.444 42.7933 107.397 41.6813 107.397 40.0781M103.368 35.5345V36.6875C103.368 39.2867 101.662 40.9036 98.9128 40.9036C97.7618 40.9036 96.0623 40.1259 96.0623 38.4476C96.0623 35.862 99.6035 35.4731 101.716 35.4731C102.055 35.4731 102.386 35.4936 102.725 35.5073C102.942 35.5209 103.151 35.5277 103.368 35.5345Z" fill="#DA2631"/>
<path d="M119.923 25.349C119.273 25.2194 118.758 25.1171 117.79 25.1171C116.131 25.1171 114.438 26.0995 113.389 27.6003C112.956 26.3928 111.811 25.5332 110.471 25.5332H109.76V43.9258H113.782V35.5209C113.782 31.4139 115.488 28.7533 118.135 28.7533C118.765 28.7533 119.313 28.8488 119.76 29.033L120.316 29.265V25.4309L119.923 25.349Z" fill="#DA2631"/>
<path d="M90.1446 38.3521L89.806 38.5158C89.806 38.5158 89.2915 38.7614 89.1086 38.8433C87.7816 39.4368 85.7638 39.8871 84.4164 39.8871C79.7852 39.8871 76.42 36.36 76.42 31.4958C76.42 26.6316 79.7784 23.1045 84.5789 23.1045C85.2899 23.1045 85.994 23.1864 86.6644 23.3501C87.5175 23.5548 88.4112 23.3842 89.1222 22.8658C89.8331 22.3473 90.2868 21.5491 90.3545 20.6622L90.4154 19.9322L89.9279 19.7139C88.3029 18.9976 86.5019 18.6428 84.4097 18.6428C76.7518 18.6428 71.4028 23.8823 71.4028 31.3798C71.4028 38.8774 76.4945 44.3215 84.3758 44.3215C86.6576 44.3215 88.5263 44.0213 89.9415 43.4278L90.429 43.2231L90.131 38.3385L90.1446 38.3521Z" fill="#DA2631"/>
<path d="M29.3381 15.989C22.1746 16.5757 16.46 22.3268 15.8844 29.5447C15.8303 30.2064 16.3787 30.759 17.0355 30.759C19.8115 30.759 26.6636 30.759 29.3923 30.759C30.0288 30.759 30.5434 30.2474 30.5434 29.5993C30.5434 26.8499 30.5434 19.9459 30.5434 17.1488C30.5434 16.487 29.9949 15.9344 29.3381 15.989Z" fill="#DA2631"/>
<path d="M15.8844 33.4265C16.4667 40.6444 22.1746 46.4023 29.3381 46.9822C29.9949 47.0368 30.5434 46.4842 30.5434 45.8224C30.5434 43.0253 30.5434 36.1213 30.5434 33.3719C30.5434 32.7306 30.0355 32.2122 29.3923 32.2122C26.6636 32.2122 19.8115 32.2122 17.0355 32.2122C16.3787 32.2122 15.8303 32.7648 15.8844 33.4265Z" fill="#B2B1B3"/>
<path d="M13.2844 16.2141H1.15782C0.518373 16.2141 0 16.7364 0 17.3807V29.5993C0 30.2436 0.518373 30.7659 1.15782 30.7659H13.2844C13.9239 30.7659 14.4423 30.2436 14.4423 29.5993V17.3807C14.4423 16.7364 13.9239 16.2141 13.2844 16.2141Z" fill="#DA2631"/>
<path d="M13.2844 32.219H1.15782C0.518373 32.219 0 32.7413 0 33.3856V45.6041C0 46.2484 0.518373 46.7707 1.15782 46.7707H13.2844C13.9239 46.7707 14.4423 46.2484 14.4423 45.6041V33.3856C14.4423 32.7413 13.9239 32.219 13.2844 32.219Z" fill="#B2B1B3"/>
<path d="M4.05579 6.64314L4.12845 7.36314C3.00551 7.61415 2.02129 7.64718 0.620919 7.64718H0V1.64936H3.53396V2.35615H0.852113V6.92057C2.10716 6.92057 3.03194 6.85452 4.05579 6.63653V6.64314ZM6.87635 9.98554V5.01818H5.53543V9.50994H4.72295V0.711377H5.53543V4.30478H6.87635V0.5H7.70865V9.98554H6.87635Z" fill="#B1B1B0"/>
<path d="M9.41284 1.66258H11.771V0.513214H12.6363V1.66258H15.0077V2.36276H9.41284V1.66258ZM12.2004 6.41195C10.8595 6.41195 9.93468 5.71176 9.93468 4.64827C9.93468 3.58478 10.8528 2.8912 12.2004 2.8912C13.5479 2.8912 14.4727 3.59139 14.4727 4.64827C14.4727 5.70516 13.5545 6.41195 12.2004 6.41195ZM12.2004 5.73158C13.0591 5.73158 13.647 5.32204 13.647 4.64167C13.647 3.9613 13.0525 3.56497 12.2004 3.56497C11.3483 3.56497 10.7604 3.9679 10.7604 4.64167C10.7604 5.31543 11.3086 5.73158 12.2004 5.73158ZM17.1611 9.77416H10.8396V7.05929H11.705V9.06737H17.1611V9.77416ZM16.7384 4.35763V7.61415H15.873V0.513214H16.7384V3.63102H18.1453V4.35763H16.7384Z" fill="#B1B1B0"/>
<path d="M19.5986 1.32569H24.0309V5.73158H19.5986V1.32569ZM20.4441 5.038H23.1854V2.02588H20.4441V5.038ZM20.781 9.66847V6.67617H21.6463V8.96829H27.1686V9.66847H20.781ZM26.0192 0.513214H26.8845V7.32351H26.0192V0.513214Z" fill="#B1B1B0"/>
<path d="M36.3766 6.78185V9.97232H35.5113V7.47543H29.7381V6.77525H32.6908V5.0446H28.8331V4.33781H35.2207C35.4717 3.19505 35.4717 2.36936 35.4717 1.64936H29.9296V0.95578H36.3238V1.64275C36.3238 2.36276 36.337 3.19505 36.0926 4.33781H37.4335V5.0446H33.5495V6.77525H36.37L36.3766 6.78185Z" fill="#B1B1B0"/>
<path d="M45.2478 6.33929L46.0735 7.93783H46.1263C46.0735 7.13195 46.0008 6.28645 46.0008 5.48718V1.4512H46.9322V9.19948H45.9282L43.1076 4.30479L42.2753 2.70625H42.2357C42.2753 3.51213 42.3546 4.3114 42.3546 5.13048V9.19948H41.4232V1.4512H42.4405L45.261 6.33929H45.2478Z" fill="#B1B1B0"/>
<path d="M48.5242 6.3393C48.5242 4.42369 49.7792 3.31396 51.1862 3.31396C52.5932 3.31396 53.8482 4.42369 53.8482 6.3393C53.8482 8.2549 52.5866 9.34481 51.1862 9.34481C49.7858 9.34481 48.5242 8.24829 48.5242 6.3393ZM52.8574 6.3393C52.8574 5.01819 52.1704 4.11984 51.1862 4.11984C50.202 4.11984 49.5282 5.01819 49.5282 6.3393C49.5282 7.6604 50.202 8.53894 51.1862 8.53894C52.1704 8.53894 52.8574 7.6604 52.8574 6.3393Z" fill="#B1B1B0"/>
<path d="M55.7969 9.35142H54.8325V8.3606H55.7969V9.35142Z" fill="#B1B1B0"/>
<path d="M58.1947 9.19948V8.42002H59.9188V2.83835C59.9188 2.74588 59.9188 2.64679 59.932 2.57413L58.525 3.82918L58.0098 3.20826L60.0905 1.41156H60.8634V8.42002H62.3826V9.19948H58.1947Z" fill="#B1B1B0"/>
<path d="M69.0277 3.66405C68.6182 4.76056 67.7661 5.58626 66.6299 6.0024L66.1741 5.32864C67.6141 4.82001 68.5719 3.57157 68.5719 2.25046V1.86734H66.4053V1.16716H71.6105V1.86734H69.4637V2.25046C69.4637 3.50551 70.4479 4.6813 71.8417 5.13708L71.4189 5.82405C70.3224 5.44093 69.4637 4.6813 69.0277 3.66405ZM73.8299 9.98554H72.9646V7.4358H67.4886V6.73562H73.8299V9.97893V9.98554ZM72.9646 6.2402V0.5H73.8299V6.2402H72.9646Z" fill="#B1B1B0"/>
<path d="M78.3613 5.57304C76.9544 5.57304 75.9173 4.64166 75.9173 3.30735C75.9173 1.97303 76.9544 1.06808 78.3613 1.06808C79.1672 1.06808 79.841 1.36532 80.2769 1.86074H82.7078V0.5H83.5863V6.1147H82.7078V4.76056H80.2769C79.841 5.26919 79.1672 5.57304 78.3613 5.57304ZM78.3613 4.83323C79.2927 4.83323 79.9665 4.19909 79.9665 3.31395C79.9665 2.42881 79.2927 1.80129 78.3613 1.80129C77.43 1.80129 76.743 2.42221 76.743 3.31395C76.743 4.2057 77.43 4.83323 78.3613 4.83323ZM83.6193 8.15581C83.6193 9.30517 82.3907 9.97232 80.4487 9.97232C78.5067 9.97232 77.2978 9.30517 77.2978 8.15581C77.2978 7.00644 78.5001 6.33929 80.4487 6.33929C82.3973 6.33929 83.6193 7.00644 83.6193 8.15581ZM82.7606 8.15581C82.7606 7.4358 81.8953 7.01305 80.4421 7.01305C78.9889 7.01305 78.15 7.4358 78.15 8.15581C78.15 8.87581 78.9955 9.28535 80.4421 9.28535C81.8887 9.28535 82.7606 8.87581 82.7606 8.15581ZM80.7922 3.31395C80.7922 3.57818 80.7525 3.82258 80.6667 4.05377H82.7078V2.57414H80.6799C80.7525 2.82515 80.7988 3.06955 80.7988 3.31395H80.7922Z" fill="#B1B1B0"/>
<path d="M93.0256 8.30111C93.0256 9.39102 91.8168 9.9723 89.7889 9.9723C87.761 9.9723 86.5324 9.39102 86.5324 8.30111C86.5324 7.31688 87.5364 6.7356 89.3463 6.64972V5.63247H85.4953V4.93229H94.0693V5.63247H90.2182V6.64972C92.0282 6.7356 93.019 7.31688 93.019 8.30111H93.0256ZM89.2274 1.62952H86.288V0.935944H93.2964V1.63613H90.3438C90.4296 2.69301 91.9159 3.48568 93.5871 3.68384L93.2832 4.37082C91.7309 4.17265 90.3239 3.49228 89.7823 2.4354C89.267 3.49228 87.8337 4.16605 86.2814 4.37082L85.9775 3.68384C87.6487 3.48568 89.1416 2.69301 89.2208 1.63613L89.2274 1.62952ZM89.7757 7.31028C88.2828 7.31028 87.4043 7.66698 87.4043 8.30111C87.4043 8.93524 88.2828 9.30515 89.7757 9.30515C91.2685 9.30515 92.1405 8.93524 92.1405 8.30111C92.1405 7.66698 91.2619 7.31028 89.7757 7.31028Z" fill="#B1B1B0"/>
<path d="M95.2253 8.65123V7.94443H98.5545V4.54919H99.4198V7.94443H103.799V8.65123H95.2253ZM96.1302 1.4512H102.782V2.38919C102.782 3.57158 102.795 4.86626 102.425 6.77526L101.56 6.68278C101.93 4.87286 101.917 3.51873 101.917 2.38919V2.15799H96.1302V1.4512Z" fill="#B1B1B0"/>
<path d="M110.418 7.3103L109.929 7.98406C108.872 7.47544 108.099 6.46479 107.69 5.22295C107.28 6.54406 106.441 7.61415 105.345 8.1492L104.856 7.49525C106.243 6.82149 107.254 5.22295 107.254 3.57157V2.83175H105.107V2.13156H107.241V0.671744H108.106V2.13817H110.213V2.83836H108.106V3.57818C108.106 5.09084 109.044 6.65635 110.411 7.3103H110.418ZM112.235 9.98554H111.369V0.5H112.235V4.40387H113.8V5.12387H112.235V9.98554Z" fill="#B1B1B0"/>
</svg>
