<svg width="50" height="44" viewBox="0 0 50 44" fill="none" xmlns="http://www.w3.org/2000/svg">
<g clip-path="url(#clip0_1926_403)">
<path d="M49.821 0.698151H0.0163574V35.1233H49.821V0.698151Z" fill="#F47B20"/>
<path d="M4.00305 5.22928H7.23437L6.82388 5.77833L9.7498 10.2181V6.27124L8.8763 5.28541H11.8022L10.9812 6.05197V13.1229H9.8007L5.95202 7.4781V12.5213L6.82388 13.1229H4.05395L4.82402 12.5756V6.16248L4.00305 5.22928Z" fill="white"/>
<path d="M19.1909 5.44831L18.8313 5.83247C18.8313 5.83247 14.9317 4.02394 13.0337 7.36735C13.0337 7.36735 11.5461 10.2722 13.7003 12.4105C13.7003 12.4105 15.7018 14.3839 18.7279 13.1227L19.1893 13.2876L19.5488 10.7108C19.5488 10.7108 18.8313 12.5193 16.7789 12.4105C16.7789 12.4105 13.5985 12.3018 14.1617 8.79347C14.1617 8.79347 14.4704 5.94298 17.2912 6.38152C17.2912 6.38152 19.0349 6.82005 19.3436 8.08128L19.1893 5.45006L19.1909 5.44831Z" fill="white"/>
<path d="M26.4253 5.72371L25.8605 5.8886C25.8605 5.8886 24.0642 4.79226 22.0643 5.66933C22.0643 5.66933 20.1137 6.98494 21.2434 8.84784C21.2434 8.84784 21.3452 9.72492 24.1167 10.2722C24.1167 10.2722 26.1183 10.7651 25.0395 12.0807C25.0395 12.0807 23.1414 13.5612 20.8838 10.9844L20.9347 13.1227L21.4995 13.0683C21.4995 13.0683 25.6043 14.4927 26.6814 12.3C26.6814 12.3 27.9129 9.99856 24.8852 9.01098C24.8852 9.01098 21.5504 8.2988 22.731 6.81829C22.731 6.81829 24.4238 5.11853 26.5796 8.13391L26.4253 5.72195V5.72371Z" fill="white"/>
<path d="M28.0145 5.55887H31.0422L30.3247 6.21667V12.4649L30.8879 13.2333H27.9636L28.7337 12.7403V6.43594L28.0145 5.55887Z" fill="white"/>
<path d="M0 29.8151V33.9268C0 33.9268 2.82247 33.3515 5.18193 31.1044C5.18193 31.1044 11.8514 25.514 12.8267 25.1842C12.8267 25.1842 15.1353 23.8686 17.9578 25.4578C17.9578 25.4578 22.1644 28.0347 25.0903 26.0051C25.0903 26.0051 27.7075 24.6351 29.9652 22.4424L36.5329 16.9064L41.7674 12.521L40.1254 10.4371L30.1195 18.6605C30.1195 18.6605 24.578 23.8686 22.5765 24.1966C22.5765 24.1966 20.3189 25.5666 17.1893 23.5388C17.1893 23.5388 12.1618 20.6883 7.9535 24.5246C7.9535 24.5246 4.4644 26.9909 3.02772 28.2522C3.02772 28.2522 1.54013 29.8414 0 29.8151Z" fill="white"/>
<path d="M45.0512 3.69415C45.0512 3.69415 43.8706 5.50268 43.7688 7.25683C43.7688 7.25683 42.1269 8.02514 41.6146 8.9566L44.2828 10.4915L44.5898 12.849L46.437 10.3266C46.437 10.3266 48.7964 10.4915 49.3612 10.93C49.3612 10.93 49.7717 10.0529 47.3088 7.91463L48.849 3.91342C48.849 3.91342 47.5666 3.80466 45.7194 5.66757C45.7194 5.66757 45.0019 4.18707 45.0528 3.69415H45.0512Z" fill="white"/>
<path d="M3.7387 39.2737V39.1334C3.9111 39.1316 4.02439 39.1211 4.07858 39.1C4.10156 39.0913 4.11798 39.0772 4.12783 39.0579C4.14425 39.0281 4.15575 38.9509 4.16231 38.8281C4.17052 38.6387 4.17381 38.4738 4.17381 38.3352V36.5618C4.17381 36.5144 4.17052 36.4828 4.16396 36.4706C4.15082 36.4443 4.12127 36.4127 4.07529 36.3758C4.04574 36.3513 4.0129 36.3373 3.97349 36.3302C3.93573 36.3232 3.85035 36.3197 3.71899 36.3197V36.1794C4.00305 36.1882 4.18038 36.1934 4.25262 36.1934C4.37577 36.1934 4.49891 36.1899 4.62205 36.1794C4.75833 36.3408 4.85849 36.46 4.92253 36.5372L5.42167 37.0915L6.14905 37.8809C6.3822 38.1335 6.56938 38.3335 6.71059 38.4773C6.80089 38.5738 6.87642 38.6492 6.93717 38.7054V37.1161C6.93717 36.974 6.93389 36.8074 6.92568 36.6179C6.91911 36.4986 6.90762 36.4232 6.89284 36.3934C6.88135 36.3758 6.86329 36.3618 6.8403 36.3513C6.78612 36.332 6.67282 36.3215 6.50042 36.3215V36.1811C6.69417 36.1899 6.88956 36.1952 7.08823 36.1952C7.27541 36.1952 7.44453 36.1917 7.59723 36.1811V36.3215C7.42483 36.3215 7.31153 36.332 7.25735 36.3513C7.23436 36.3601 7.21794 36.3758 7.20809 36.3951C7.19167 36.4232 7.18018 36.4986 7.17361 36.6232C7.1654 36.8161 7.16212 36.981 7.16212 37.1178V38.1668C7.16212 38.3773 7.1654 38.7738 7.17361 39.3526L6.92075 39.2825L6.86164 39.2702C6.85179 39.2684 6.84358 39.2649 6.83537 39.2579C6.82388 39.2509 6.79268 39.2211 6.74178 39.1684C6.60715 39.0316 6.50699 38.9281 6.4446 38.8562L6.12935 38.4966L4.39711 36.632V38.323C4.39711 38.465 4.40039 38.6352 4.4086 38.8317C4.41517 38.9527 4.42502 39.0281 4.44144 39.0562C4.45294 39.0772 4.471 39.0913 4.49398 39.0983C4.54817 39.1193 4.66146 39.1299 4.83386 39.1316V39.2719C4.68937 39.2632 4.53011 39.2579 4.3577 39.2579C4.16724 39.2579 3.96036 39.2632 3.7387 39.2719V39.2737Z" fill="#231F20"/>
<path d="M9.42313 38.7123C9.31805 38.8245 9.21132 38.9087 9.1046 38.9649C8.99787 39.021 8.88951 39.0473 8.78114 39.0473C8.66292 39.0473 8.56933 39.0175 8.50365 38.9579C8.43633 38.8982 8.4035 38.8158 8.4035 38.7088C8.4035 38.6211 8.42484 38.5404 8.46753 38.4702C8.49544 38.4211 8.52828 38.3843 8.5644 38.3597C8.6268 38.3176 8.73188 38.2772 8.8813 38.2387C9.03071 38.2001 9.21132 38.165 9.42313 38.1317V38.7123ZM8.39857 37.5809L8.4429 37.5002C8.45932 37.4861 8.50365 37.4668 8.5759 37.444C8.64814 37.4212 8.73352 37.4089 8.82875 37.4089C8.96175 37.4089 9.07504 37.4335 9.16863 37.4826C9.26222 37.5317 9.3279 37.5949 9.36731 37.6721C9.40671 37.7493 9.42477 37.858 9.42313 37.9966C9.21461 38.0176 9.0028 38.0492 8.78935 38.0948C8.5759 38.1404 8.42156 38.1825 8.32797 38.2211C8.27214 38.2457 8.21796 38.2808 8.16377 38.3299C8.10959 38.3772 8.06362 38.4439 8.02585 38.5263C7.98809 38.6088 7.96838 38.7 7.96838 38.8C7.96838 38.9544 8.02421 39.0789 8.13422 39.1719C8.24423 39.2648 8.39857 39.3122 8.5956 39.3122C8.69083 39.3122 8.768 39.2982 8.8304 39.2683C8.89279 39.2403 9.08982 39.114 9.42313 38.8894L9.41164 39.2719C9.57583 39.2631 9.70719 39.2578 9.8057 39.2578C9.90422 39.2578 10.0257 39.2631 10.1604 39.2719V39.1456L9.99945 39.1315C9.94691 39.1298 9.91243 39.1245 9.89601 39.1157C9.87466 39.1052 9.85824 39.0894 9.85003 39.0684C9.8369 39.0368 9.83033 38.9859 9.83033 38.9158V38.272L9.84182 37.8738C9.84182 37.7335 9.82048 37.623 9.77779 37.5423C9.7154 37.4282 9.62016 37.3388 9.49209 37.2774C9.36402 37.2142 9.2064 37.1827 9.02086 37.1827C8.89443 37.1827 8.78114 37.1984 8.67934 37.23C8.54634 37.2704 8.37558 37.3511 8.1687 37.4703C8.1687 37.5072 8.17034 37.5563 8.17034 37.6177C8.17034 37.6756 8.17034 37.7212 8.1687 37.7528L8.3017 37.7826C8.32304 37.7352 8.35588 37.6668 8.40021 37.5809H8.39857Z" fill="#231F20"/>
<path d="M10.3869 37.5773V37.4861C10.5445 37.4282 10.6709 37.3774 10.7645 37.33V36.6687C10.9353 36.6161 11.0749 36.5617 11.1832 36.502L11.2423 36.5441C11.2243 36.6652 11.2046 36.9318 11.1832 37.344C11.3129 37.3458 11.3901 37.3475 11.4164 37.3475C11.4312 37.3475 11.5149 37.3475 11.666 37.344C11.7497 37.3423 11.8137 37.337 11.8548 37.33L11.8712 37.3458L11.8203 37.5493C11.7185 37.5475 11.6249 37.5458 11.5379 37.5458C11.4509 37.5458 11.3326 37.5458 11.1816 37.5493L11.1701 38.4316C11.1652 38.6474 11.1668 38.7754 11.175 38.8175C11.1832 38.8596 11.198 38.8947 11.221 38.9263C11.244 38.9578 11.2735 38.9824 11.3097 39.0017C11.3458 39.021 11.4082 39.035 11.4952 39.0456C11.5609 39.0456 11.6151 39.042 11.6561 39.0368C11.6972 39.0315 11.7497 39.0192 11.8121 38.9982L11.8416 39.0894C11.7645 39.1438 11.6906 39.1982 11.6183 39.2561C11.5559 39.2771 11.4985 39.2894 11.4443 39.2964C11.3901 39.3034 11.3277 39.3069 11.2588 39.3069C11.1717 39.3069 11.1028 39.2982 11.0519 39.2824C11.001 39.2666 10.9534 39.242 10.9107 39.2104C10.868 39.1789 10.8335 39.1385 10.8056 39.0912C10.7777 39.0438 10.7596 38.9684 10.7514 38.8666C10.7514 38.7666 10.7563 38.6579 10.7613 38.5421C10.7613 38.5176 10.7629 38.493 10.7629 38.4649V37.5633H10.6611C10.579 37.5633 10.4871 37.5686 10.3853 37.5773H10.3869Z" fill="#231F20"/>
<path d="M12.6199 36.2074C12.6971 36.2074 12.7628 36.232 12.8153 36.2793C12.8679 36.3285 12.8958 36.3864 12.8958 36.4548C12.8958 36.5232 12.8679 36.5793 12.8137 36.6284C12.7595 36.6775 12.6955 36.7003 12.6199 36.7003C12.5444 36.7003 12.4771 36.6758 12.4229 36.6284C12.3687 36.5793 12.3424 36.5232 12.3424 36.4548C12.3424 36.3864 12.3687 36.3267 12.4229 36.2793C12.4771 36.2302 12.5428 36.2074 12.6199 36.2074ZM12.0173 37.4774V37.3511C12.3326 37.3196 12.5986 37.2599 12.812 37.1705L12.8662 37.2038C12.858 37.5143 12.8547 37.7511 12.8547 37.916V38.3107C12.8629 38.6895 12.8679 38.893 12.8695 38.9246C12.8695 38.9965 12.8793 39.0491 12.8958 39.0825C12.904 39.0948 12.9155 39.107 12.9286 39.1158C12.9417 39.1246 12.9614 39.1333 12.9877 39.1386C12.9976 39.1404 13.0895 39.1439 13.2619 39.1474V39.2737C13.0123 39.2649 12.812 39.2596 12.6643 39.2596C12.5329 39.2596 12.3178 39.2649 12.019 39.2737V39.1474L12.2554 39.1439C12.2899 39.1421 12.3178 39.1369 12.3359 39.1281C12.3556 39.1193 12.3687 39.107 12.3786 39.0912C12.3966 39.0632 12.4081 39.0123 12.413 38.9386C12.413 38.9176 12.4163 38.7088 12.4245 38.3107V37.9265C12.4245 37.7125 12.4163 37.5844 12.3999 37.5423C12.3901 37.5195 12.372 37.5037 12.3474 37.4932C12.3211 37.4827 12.2127 37.4757 12.019 37.4757L12.0173 37.4774Z" fill="#231F20"/>
<path d="M15.6622 39.2735V39.1472L15.8987 39.1437C15.9331 39.1419 15.9611 39.1366 15.9791 39.1279C15.9988 39.1191 16.012 39.1068 16.0218 39.0928C16.0399 39.0647 16.0514 39.0139 16.0563 38.9402C16.0563 38.9191 16.0596 38.7121 16.0678 38.3157V38.0596C16.0678 37.9438 16.0645 37.8193 16.0563 37.6877C16.0514 37.6035 16.0432 37.5526 16.0333 37.5369C16.0235 37.5211 16.0038 37.5088 15.9791 37.5018C15.9529 37.493 15.8478 37.4913 15.6622 37.493V37.3667C15.9923 37.3264 16.232 37.2737 16.3847 37.2088C16.4175 37.1948 16.4389 37.186 16.4504 37.186C16.4619 37.186 16.4701 37.1895 16.4766 37.1966C16.4832 37.2036 16.4865 37.2141 16.4865 37.2299C16.4865 37.2387 16.4865 37.2492 16.4865 37.2632C16.4832 37.3158 16.4799 37.4246 16.4766 37.5895L16.9314 37.2404C17.0644 37.1966 17.1909 37.1738 17.3107 37.1738C17.4421 37.1738 17.5669 37.1983 17.6851 37.2457C17.8033 37.293 17.892 37.3544 17.9511 37.4263C18.0102 37.4983 18.0496 37.5912 18.0693 37.7017C18.0808 37.7667 18.0857 37.9491 18.0857 38.249V38.635C18.0857 38.8244 18.089 38.9525 18.0972 39.0209C18.1054 39.063 18.1186 39.0928 18.135 39.1103C18.153 39.1261 18.1793 39.1366 18.2154 39.1401L18.4798 39.1489V39.2752C18.3205 39.2664 18.1892 39.2612 18.0841 39.2612C17.9938 39.2612 17.8427 39.2664 17.6309 39.2752C17.6506 38.9174 17.6605 38.6893 17.6605 38.5946V38.2262C17.6605 37.9982 17.6506 37.8473 17.6309 37.7772C17.603 37.6789 17.5406 37.6 17.4437 37.5404C17.3468 37.4807 17.2286 37.4509 17.0907 37.4509C16.9692 37.4509 16.8576 37.4772 16.7574 37.5298C16.6572 37.5825 16.585 37.6421 16.5423 37.7088C16.4996 37.7772 16.4783 37.8912 16.4783 38.0508V38.3122C16.4865 38.6893 16.4898 38.8946 16.4898 38.9261C16.493 38.9981 16.5029 39.0507 16.5193 39.084C16.5259 39.0963 16.5357 39.1086 16.5489 39.1173C16.562 39.1261 16.5817 39.1349 16.6096 39.1401C16.6195 39.1419 16.7098 39.1454 16.8805 39.1489V39.2752C16.6802 39.2664 16.4996 39.2612 16.3371 39.2612C16.1991 39.2612 15.9758 39.2664 15.6639 39.2752L15.6622 39.2735Z" fill="#231F20"/>
<path d="M20.1728 38.7123C20.0677 38.8245 19.961 38.9087 19.8542 38.9649C19.7475 39.021 19.6408 39.0473 19.5308 39.0473C19.4126 39.0473 19.319 39.0175 19.2533 38.9579C19.186 38.8982 19.1531 38.8158 19.1531 38.7088C19.1531 38.6211 19.1745 38.5404 19.2172 38.4702C19.2451 38.4211 19.2779 38.3843 19.314 38.3597C19.3764 38.3176 19.4815 38.2772 19.6309 38.2387C19.7803 38.2001 19.961 38.165 20.1728 38.1317V38.7123ZM19.1482 37.5809L19.1925 37.5002C19.209 37.4861 19.2533 37.4668 19.3255 37.444C19.3978 37.4212 19.4832 37.4089 19.5784 37.4089C19.7114 37.4089 19.8247 37.4335 19.9183 37.4826C20.0119 37.5317 20.0775 37.5949 20.1169 37.6721C20.1563 37.7493 20.1744 37.858 20.1728 37.9966C19.9642 38.0176 19.7524 38.0492 19.539 38.0948C19.3255 38.1404 19.1712 38.1825 19.0776 38.2211C19.0218 38.2457 18.9676 38.2808 18.9134 38.3299C18.8592 38.3772 18.8132 38.4439 18.7755 38.5263C18.7377 38.6088 18.718 38.7 18.718 38.8C18.718 38.9544 18.7738 39.0789 18.8839 39.1719C18.9939 39.2648 19.1482 39.3122 19.3452 39.3122C19.4405 39.3122 19.5176 39.2982 19.58 39.2683C19.6424 39.2403 19.8395 39.114 20.1728 38.8894L20.1613 39.2719C20.3255 39.2631 20.4568 39.2578 20.5553 39.2578C20.6539 39.2578 20.7754 39.2631 20.91 39.2719V39.1456L20.7491 39.1315C20.6965 39.1298 20.6621 39.1245 20.6456 39.1157C20.6243 39.1052 20.6079 39.0894 20.598 39.0684C20.5849 39.0368 20.5783 38.9859 20.5783 38.9158V38.272L20.5898 37.8738C20.5898 37.7335 20.5685 37.623 20.5258 37.5423C20.4634 37.4282 20.3682 37.3388 20.2401 37.2774C20.112 37.2142 19.9544 37.1827 19.7689 37.1827C19.6424 37.1827 19.5291 37.1984 19.4273 37.23C19.2943 37.2704 19.1236 37.3511 18.9167 37.4703C18.9183 37.5072 18.92 37.5563 18.92 37.6177C18.92 37.6756 18.92 37.7212 18.9167 37.7528L19.0497 37.7826C19.071 37.7352 19.1039 37.6668 19.1482 37.5809Z" fill="#231F20"/>
<path d="M21.148 39.2738V39.1475L21.3828 39.144C21.419 39.1422 21.4469 39.137 21.4666 39.1282C21.4863 39.1194 21.501 39.1071 21.5109 39.0914C21.529 39.0633 21.5405 39.0124 21.5437 38.9387C21.5437 38.9194 21.5487 38.7107 21.5552 38.3125V37.4126C21.5552 37.1706 21.5519 36.9215 21.5437 36.6619C21.5372 36.4882 21.5273 36.3917 21.5175 36.3707C21.5093 36.3584 21.4961 36.3479 21.4781 36.3409C21.4534 36.3321 21.3401 36.3268 21.1382 36.3268V36.2005C21.5076 36.1602 21.7638 36.1093 21.9066 36.0479C21.9279 36.0391 21.9444 36.0339 21.9559 36.0339C21.9674 36.0339 21.9756 36.0374 21.9821 36.0444C21.9887 36.0514 21.992 36.0602 21.992 36.0707C21.992 36.0812 21.9903 36.097 21.9871 36.1146L21.9838 36.1865C21.9739 36.4443 21.969 36.6654 21.9674 36.8478L21.9624 37.1863V38.3143C21.969 38.6914 21.9723 38.8949 21.9739 38.9265C21.9739 38.9984 21.9854 39.051 22.0035 39.0843C22.01 39.0966 22.0199 39.1089 22.033 39.1177C22.0462 39.1264 22.0659 39.1335 22.0921 39.1405C22.1036 39.1422 22.1956 39.1457 22.368 39.1492V39.2755C22.1447 39.2668 21.9493 39.2615 21.7818 39.2615C21.6143 39.2615 21.4107 39.2668 21.148 39.2755V39.2738Z" fill="#231F20"/>
<path d="M27.151 38.886L27.0557 39.0877C26.8653 39.1736 26.6781 39.2368 26.4942 39.2754C26.3119 39.314 26.1116 39.3333 25.8965 39.3333C25.6437 39.3333 25.4089 39.3052 25.1921 39.2491C24.9754 39.1929 24.7849 39.1122 24.6224 39.007C24.4598 38.9035 24.3268 38.7842 24.225 38.6544C24.1216 38.5228 24.0444 38.3808 23.9902 38.2281C23.9361 38.0755 23.9098 37.9071 23.9098 37.7247C23.9098 37.2634 24.092 36.8792 24.4549 36.5757C24.8178 36.2723 25.3136 36.1197 25.9425 36.1197C26.0903 36.1197 26.2282 36.1267 26.3546 36.1425C26.481 36.1583 26.6354 36.1881 26.8176 36.2302C26.9999 36.2723 27.1116 36.2968 27.1526 36.3056C27.1165 36.3845 27.0886 36.4635 27.0705 36.5407C27.0442 36.6634 27.0262 36.8055 27.0163 36.9669H26.8636V36.7126C26.8456 36.5705 26.7569 36.4652 26.596 36.3968C26.4351 36.3284 26.2003 36.2933 25.89 36.2933C25.6584 36.2951 25.4614 36.3214 25.3005 36.3705C25.1396 36.4196 24.9967 36.4986 24.8736 36.6073C24.7505 36.7161 24.6503 36.8529 24.5715 37.0178C24.4927 37.1844 24.4533 37.3914 24.4516 37.6405C24.4516 38.079 24.6027 38.4316 24.9048 38.6983C25.2069 38.9649 25.6043 39.0982 26.1001 39.0982C26.3234 39.0982 26.5303 39.0719 26.7208 39.0175C26.8505 38.9789 26.9802 38.9193 27.1099 38.8368L27.151 38.8842V38.886Z" fill="#231F20"/>
<path d="M30.1951 39.1473V39.2736C29.98 39.2648 29.8191 39.2595 29.7091 39.2595C29.5876 39.2595 29.4645 39.2648 29.3413 39.2736C29.3495 39.156 29.3545 39.0245 29.3594 38.8771C29.2625 38.9455 29.1459 39.042 29.0113 39.1648C28.9801 39.1911 28.9505 39.2104 28.921 39.2245C28.852 39.2613 28.7814 39.2859 28.7125 39.3034C28.6435 39.3192 28.5598 39.328 28.4612 39.328C28.3299 39.328 28.2199 39.3122 28.1312 39.2788C28.0426 39.2455 27.967 39.1981 27.903 39.1332C27.8554 39.0841 27.8193 39.0227 27.793 38.9473C27.7667 38.8719 27.7552 38.7789 27.7552 38.6719C27.7552 38.6193 27.7569 38.5719 27.7618 38.5263C27.7651 38.4807 27.7683 38.4368 27.7683 38.393V38.0194C27.7683 37.9825 27.7651 37.886 27.7569 37.7317C27.7536 37.637 27.747 37.5756 27.7355 37.544C27.7289 37.53 27.7191 37.5177 27.7043 37.5071C27.6797 37.4931 27.637 37.4843 27.5746 37.4843H27.3628V37.358C27.7142 37.323 27.9703 37.2668 28.1279 37.1914C28.1542 37.1791 28.1739 37.1721 28.1887 37.1721C28.2002 37.1721 28.21 37.1756 28.2166 37.1826C28.2232 37.1896 28.2281 37.2002 28.2281 37.2142C28.2281 37.2247 28.2281 37.2405 28.2264 37.2581C28.2215 37.3037 28.2166 37.3931 28.2117 37.5264C28.2035 37.7703 28.1985 37.9334 28.1985 38.0176V38.4439C28.1985 38.6228 28.2117 38.7473 28.2379 38.8193C28.2642 38.8912 28.3168 38.9491 28.3923 38.9929C28.4695 39.0368 28.563 39.0578 28.6763 39.0578C28.7535 39.0578 28.8307 39.0455 28.9078 39.021C28.985 38.9964 29.054 38.9596 29.1147 38.9122C29.1607 38.8789 29.2067 38.835 29.2543 38.7789C29.2904 38.7368 29.3134 38.7052 29.3249 38.6824C29.3364 38.6596 29.343 38.628 29.3462 38.5824C29.3545 38.4544 29.3577 38.3281 29.3577 38.2018V38.0176C29.3577 37.9808 29.3545 37.8843 29.3462 37.7317C29.343 37.637 29.3364 37.5756 29.3249 37.5457C29.3183 37.5317 29.3085 37.5194 29.2937 37.5089C29.2691 37.4949 29.2264 37.4861 29.164 37.4861H28.9522V37.3598C29.3068 37.3247 29.563 37.2686 29.7239 37.1932C29.7502 37.1809 29.7715 37.1739 29.7863 37.1739C29.7978 37.1739 29.8076 37.1774 29.8142 37.1844C29.8208 37.1914 29.8257 37.2019 29.8257 37.216C29.8257 37.2265 29.8257 37.2423 29.8224 37.2598C29.8175 37.3054 29.8126 37.3984 29.806 37.5352C29.7961 37.772 29.7912 37.9334 29.7912 38.0159V38.3141L29.7961 38.6175C29.8027 38.7929 29.806 38.8982 29.8076 38.928C29.8093 38.9999 29.8175 39.0526 29.8339 39.0859C29.8421 39.0982 29.852 39.1104 29.8651 39.1192C29.8782 39.128 29.8979 39.1368 29.9242 39.142C29.9341 39.1438 30.0244 39.1473 30.1951 39.1508V39.1473Z" fill="#231F20"/>
<path d="M30.5432 38.6052H30.6844C30.6844 38.6894 30.691 38.7561 30.6992 38.8052C30.7074 38.8543 30.7206 38.9034 30.7403 38.9508C30.76 38.9982 30.7912 39.0385 30.8322 39.0718C30.8732 39.1052 30.9176 39.1315 30.9668 39.149C31.0161 39.1666 31.0654 39.1789 31.1146 39.1859C31.1655 39.1929 31.241 39.1964 31.3428 39.1964C31.5103 39.1964 31.6482 39.1578 31.755 39.0789C31.8633 38.9999 31.9159 38.8947 31.9159 38.7579C31.9159 38.6965 31.8995 38.6438 31.865 38.5982C31.8305 38.5526 31.7829 38.5158 31.7205 38.4912C31.6581 38.4649 31.5218 38.4316 31.3149 38.3895C31.108 38.3474 30.9734 38.3176 30.9127 38.2983C30.8207 38.2684 30.7485 38.2334 30.6943 38.1895C30.6401 38.1457 30.5974 38.0913 30.5662 38.0264C30.535 37.9597 30.5186 37.8878 30.5186 37.8089C30.5186 37.6948 30.5531 37.5896 30.6204 37.4949C30.6877 37.4001 30.7944 37.3212 30.9406 37.2616C31.0851 37.2019 31.2443 37.1721 31.4167 37.1721C31.5202 37.1721 31.6384 37.1844 31.7747 37.2072C31.9109 37.2317 32.021 37.2616 32.1063 37.2984C32.0948 37.4598 32.0883 37.6247 32.0833 37.7931H31.9421C31.9339 37.6896 31.9241 37.6212 31.9142 37.5896C31.9044 37.5563 31.8896 37.5282 31.8715 37.5019C31.8535 37.4756 31.8223 37.4475 31.778 37.4194C31.7336 37.3896 31.6778 37.3651 31.6072 37.3423C31.5382 37.3195 31.4529 37.3089 31.3511 37.3089C31.2082 37.3089 31.0916 37.3458 31.0046 37.4212C30.9176 37.4966 30.8732 37.5843 30.8732 37.6843C30.8732 37.7387 30.8864 37.7878 30.911 37.8264C30.9356 37.8667 30.9701 37.9001 31.0128 37.9246C31.0555 37.9492 31.1146 37.972 31.1918 37.9913L31.599 38.0825C31.8042 38.1281 31.9471 38.1685 32.0242 38.2C32.1014 38.2334 32.1638 38.2842 32.2114 38.3544C32.259 38.4246 32.282 38.507 32.282 38.6052C32.282 38.8 32.1917 38.9684 32.0078 39.1139C31.8256 39.2595 31.5809 39.3315 31.2755 39.3315C31.1343 39.3315 30.9471 39.3122 30.714 39.2718C30.5843 39.2508 30.5153 39.2367 30.5055 39.2262C30.4989 39.2209 30.4956 39.2122 30.4956 39.2034C30.4956 39.1929 30.4956 39.1806 30.5005 39.1666C30.5153 39.1034 30.5252 39.042 30.5301 38.9824C30.535 38.9227 30.5399 38.7982 30.5432 38.6088V38.6052Z" fill="#231F20"/>
<path d="M32.5579 37.5773V37.4861C32.7155 37.4282 32.842 37.3774 32.9356 37.33V36.6687C33.1063 36.6161 33.2459 36.5617 33.3543 36.502L33.4134 36.5441C33.3953 36.6652 33.3756 36.9318 33.3543 37.344C33.484 37.3458 33.5611 37.3475 33.5874 37.3475C33.6022 37.3475 33.6859 37.3475 33.837 37.344C33.9207 37.3423 33.9848 37.337 34.0258 37.33L34.0422 37.3458L33.9913 37.5493C33.8895 37.5475 33.7959 37.5458 33.7089 37.5458C33.6219 37.5458 33.5037 37.5458 33.3526 37.5493L33.3411 38.4316C33.3362 38.6474 33.3378 38.7754 33.346 38.8175C33.3543 38.8596 33.369 38.8947 33.392 38.9263C33.415 38.9578 33.4446 38.9824 33.4807 39.0017C33.5168 39.021 33.5792 39.035 33.6662 39.0456C33.7319 39.0456 33.7861 39.042 33.8271 39.0368C33.8682 39.0315 33.9207 39.0192 33.9831 38.9982L34.0127 39.0894C33.9355 39.1438 33.8616 39.1982 33.7894 39.2561C33.727 39.2771 33.6695 39.2894 33.6153 39.2964C33.5611 39.3034 33.4987 39.3069 33.4298 39.3069C33.3428 39.3069 33.2738 39.2982 33.2229 39.2824C33.172 39.2666 33.1244 39.242 33.0817 39.2104C33.039 39.1789 33.0045 39.1385 32.9766 39.0912C32.9487 39.0438 32.9306 38.9684 32.9224 38.8666C32.9224 38.7666 32.9274 38.6579 32.9323 38.5421C32.9323 38.5176 32.9339 38.493 32.9339 38.4649V37.5633H32.8321C32.75 37.5633 32.6581 37.5686 32.5563 37.5773H32.5579Z" fill="#231F20"/>
<path d="M34.8992 37.5091C35.024 37.3811 35.1866 37.3162 35.3869 37.3162C35.5281 37.3162 35.6578 37.3495 35.776 37.4179C35.8926 37.4863 35.9895 37.6038 36.0666 37.7705C36.1422 37.9371 36.1799 38.1353 36.1799 38.3669C36.1799 38.644 36.1159 38.8475 35.9895 38.9808C35.863 39.1142 35.7038 39.1791 35.515 39.1791C35.3672 39.1791 35.2293 39.137 35.1028 39.0528C34.9764 38.9686 34.8795 38.8335 34.8122 38.6511C34.7449 38.4669 34.712 38.288 34.712 38.1108C34.712 37.8371 34.7744 37.6372 34.8992 37.5091ZM34.3607 38.7774C34.4034 38.8686 34.4658 38.9563 34.5479 39.0422C34.63 39.1282 34.7367 39.2001 34.868 39.2562C34.9994 39.3124 35.1603 39.3404 35.3508 39.3404C35.5938 39.3404 35.8187 39.2896 36.0207 39.1913C36.2243 39.0914 36.3802 38.9545 36.4919 38.7791C36.6035 38.6037 36.6594 38.4107 36.6594 38.1985C36.6594 37.895 36.551 37.6477 36.3359 37.4565C36.1192 37.2653 35.8401 37.1688 35.4969 37.1688C35.1324 37.1688 34.8319 37.2723 34.5988 37.4758C34.3656 37.681 34.249 37.9459 34.249 38.2722C34.249 38.4511 34.2868 38.6195 34.3623 38.7774H34.3607Z" fill="#231F20"/>
<path d="M36.9204 39.2737V39.1474L37.1568 39.1439C37.1913 39.1421 37.2176 39.1369 37.2373 39.1281C37.257 39.1193 37.2701 39.1071 37.2816 39.093C37.2997 39.065 37.3112 39.0141 37.3161 38.9404C37.3161 38.9194 37.3194 38.7124 37.3276 38.3159V38.0598C37.3276 37.9441 37.3243 37.8195 37.3161 37.6879C37.3112 37.6037 37.303 37.5529 37.2931 37.5371C37.2816 37.5213 37.2636 37.509 37.2373 37.502C37.211 37.4932 37.1059 37.4915 36.9204 37.4932V37.3669C37.2504 37.3266 37.4902 37.274 37.6429 37.2091C37.6757 37.195 37.697 37.1863 37.7085 37.1863C37.72 37.1863 37.7282 37.1898 37.7348 37.1968C37.7414 37.2038 37.7447 37.2143 37.7447 37.2301C37.7447 37.2389 37.7447 37.2494 37.743 37.2634C37.7381 37.3319 37.7348 37.4336 37.7332 37.5669L38.0533 37.3055C38.0944 37.274 38.119 37.2564 38.1289 37.2529C38.1666 37.2336 38.2192 37.2161 38.2898 37.2003C38.3587 37.1845 38.4326 37.1757 38.5082 37.1757C38.6641 37.1757 38.8021 37.2108 38.9236 37.2792C39.0451 37.3476 39.1387 37.4494 39.2027 37.5827L39.4736 37.3599C39.5344 37.3143 39.5754 37.2862 39.5984 37.274C39.6411 37.2529 39.7018 37.2336 39.779 37.2161C39.8578 37.1985 39.935 37.1898 40.0122 37.1898C40.1977 37.1898 40.3537 37.2336 40.4801 37.3213C40.6065 37.409 40.687 37.5073 40.7231 37.6178C40.7461 37.6915 40.7576 37.8511 40.7576 38.0967V38.3212L40.7642 38.6229C40.7674 38.7983 40.7707 38.9018 40.7707 38.9334C40.774 39.0053 40.7839 39.0579 40.8003 39.0913C40.8069 39.1035 40.8167 39.1158 40.8315 39.1246C40.8463 39.1334 40.866 39.1404 40.8922 39.1474C40.9021 39.1492 40.9924 39.1527 41.1648 39.1562V39.2825C40.9579 39.2737 40.8167 39.2684 40.7412 39.2684C40.6656 39.2684 40.5228 39.2737 40.3044 39.2825L40.3258 38.6861L40.334 38.451V38.2668C40.334 38.0247 40.3192 37.8581 40.2929 37.7704C40.265 37.6827 40.2059 37.6108 40.1172 37.5546C40.0286 37.5003 39.9235 37.4722 39.8069 37.4722C39.6706 37.4722 39.5475 37.5073 39.4375 37.5774C39.3587 37.6301 39.3078 37.6932 39.2815 37.7651C39.2569 37.837 39.2437 37.9774 39.2437 38.1861V38.33L39.2503 38.6299C39.2536 38.8036 39.2552 38.9071 39.2569 38.9387C39.2602 39.0106 39.27 39.0632 39.2864 39.0948C39.293 39.1071 39.3028 39.1193 39.316 39.1281C39.3291 39.1369 39.3488 39.1439 39.3751 39.1509C39.3866 39.1527 39.4785 39.1562 39.6509 39.1597V39.286C39.4112 39.2772 39.2175 39.2719 39.073 39.2719C38.9548 39.2719 38.7413 39.2772 38.431 39.286V39.1597L38.6674 39.1562C38.7035 39.1544 38.7315 39.1492 38.7512 39.1404C38.7709 39.1316 38.784 39.1193 38.7939 39.1035C38.8119 39.0755 38.8234 39.0246 38.8267 38.9509C38.8267 38.9299 38.8316 38.7211 38.8382 38.3247V38.1563C38.8382 37.9704 38.8218 37.8335 38.7889 37.7476C38.7561 37.6616 38.6986 37.5932 38.6165 37.5406C38.5344 37.4897 38.4359 37.4634 38.321 37.4634C38.2225 37.4634 38.1289 37.4827 38.0418 37.5195C37.9548 37.5564 37.8875 37.6037 37.8415 37.6581C37.7956 37.7143 37.7693 37.7721 37.7594 37.8335C37.743 37.9353 37.7364 38.0563 37.7364 38.1967V38.3265C37.7447 38.7036 37.7479 38.9071 37.7479 38.9387C37.7512 39.0106 37.7611 39.0632 37.7775 39.0965C37.7841 39.1088 37.7939 39.1211 37.8071 39.1299C37.8202 39.1386 37.8415 39.1456 37.8694 39.1527C37.8793 39.1544 37.9712 39.1579 38.142 39.1614V39.2877C37.9154 39.279 37.7217 39.2737 37.5624 39.2737C37.4212 39.2737 37.2077 39.279 36.9221 39.2877L36.9204 39.2737Z" fill="#231F20"/>
<path d="M42.0103 37.4916C42.1236 37.374 42.273 37.3162 42.4602 37.3162C42.6359 37.3162 42.7771 37.3688 42.8822 37.4758C42.9872 37.5828 43.0398 37.7494 43.0398 37.9775C43.0398 37.995 43.0398 38.0231 43.0381 38.0582C42.9692 38.0652 42.8247 38.0687 42.6063 38.0687C42.5144 38.0687 42.3452 38.0652 42.1006 38.0582C41.9725 38.0547 41.8855 38.0494 41.8395 38.0441C41.8412 37.7915 41.8986 37.6073 42.0119 37.4916H42.0103ZM43.378 38.9002C43.2319 38.9756 43.1087 39.0264 43.0102 39.0563C42.9117 39.0861 42.8116 39.1001 42.7114 39.1001C42.5636 39.1001 42.4208 39.0703 42.2845 39.0089C42.1466 38.9475 42.0398 38.8528 41.961 38.723C41.8822 38.5949 41.8428 38.4265 41.8395 38.2178H42.6293C42.8066 38.2178 42.984 38.2125 43.1613 38.2002C43.2549 38.195 43.36 38.181 43.4782 38.1617C43.4864 38.102 43.4897 38.0529 43.4897 38.0126C43.4897 37.8529 43.4552 37.7091 43.3862 37.581C43.3173 37.453 43.2089 37.353 43.0611 37.2793C42.9134 37.2056 42.7475 37.1688 42.5636 37.1688C42.4126 37.1688 42.273 37.1934 42.1433 37.2407C42.0448 37.2758 41.9463 37.3232 41.8461 37.3828C41.7459 37.4425 41.6721 37.4968 41.6244 37.5424C41.5588 37.6073 41.5013 37.7073 41.4488 37.8406C41.3979 37.974 41.3716 38.1248 41.3716 38.2915C41.3716 38.5037 41.4208 38.6897 41.5177 38.8493C41.6146 39.0089 41.7509 39.1282 41.9266 39.2071C42.1022 39.2861 42.2976 39.3264 42.5127 39.3264C42.6227 39.3264 42.7262 39.3159 42.8263 39.2948C42.9248 39.2738 43.0135 39.2475 43.0907 39.2159C43.1432 39.1948 43.2253 39.1527 43.3386 39.0896L43.4174 38.9335L43.378 38.8966V38.9002Z" fill="#231F20"/>
<path d="M43.7689 39.2736V39.1473C43.9545 39.1438 44.053 39.1403 44.0678 39.1385C44.0957 39.1332 44.117 39.1262 44.1301 39.1157C44.1433 39.1069 44.1548 39.0929 44.163 39.0771C44.1794 39.0438 44.1893 38.9912 44.1925 38.9192C44.2007 38.5351 44.204 38.3334 44.204 38.3141V38.0579C44.204 37.9422 44.2007 37.8176 44.1925 37.6861C44.1893 37.6019 44.1827 37.551 44.1712 37.5352C44.1613 37.5194 44.1416 37.5071 44.1154 37.5001C44.0891 37.4914 43.9824 37.4896 43.7968 37.4914V37.3651C44.1269 37.3247 44.3666 37.2721 44.5193 37.2072C44.5521 37.1932 44.5735 37.1844 44.585 37.1844C44.5965 37.1844 44.6047 37.1879 44.6112 37.1949C44.6178 37.2019 44.6211 37.2125 44.6211 37.2282C44.6211 37.237 44.6211 37.2475 44.6211 37.2616C44.6145 37.3493 44.6112 37.4843 44.6112 37.6668C44.6835 37.5913 44.7524 37.5159 44.8132 37.4422C44.8756 37.3686 44.9199 37.3195 44.9478 37.2984C44.9971 37.2616 45.0529 37.2317 45.1169 37.2072C45.181 37.1844 45.2467 37.1721 45.314 37.1721C45.3813 37.1721 45.4503 37.1861 45.5159 37.2107L45.5307 37.2423C45.5061 37.4387 45.4929 37.6106 45.4897 37.7597H45.3797C45.3419 37.6878 45.2992 37.6352 45.2499 37.6019C45.2007 37.5685 45.1383 37.5528 45.0628 37.5528C44.938 37.5528 44.8312 37.5984 44.7426 37.6913C44.6556 37.7825 44.6112 37.9211 44.6112 38.1071V38.3316C44.6112 38.4263 44.6145 38.6017 44.6227 38.8578C44.6244 38.9473 44.6293 39.0034 44.6359 39.0297C44.6424 39.0543 44.6506 39.0736 44.6621 39.0841C44.6736 39.0947 44.69 39.1052 44.7147 39.1122C44.7639 39.1245 44.8969 39.1385 45.1137 39.1508V39.2771C44.8263 39.2683 44.58 39.2631 44.3781 39.2631C44.1761 39.2631 43.9659 39.2683 43.7706 39.2771L43.7689 39.2736Z" fill="#231F20"/>
<path d="M3.75015 43.7574C3.78134 43.6118 3.79941 43.3767 3.80597 43.0487H4.00136C4.01121 43.2697 4.02599 43.3995 4.04898 43.4381C4.07032 43.4767 4.12451 43.5206 4.20825 43.5644C4.29198 43.61 4.40528 43.6504 4.54813 43.6855C4.68933 43.7205 4.82725 43.7381 4.96025 43.7381C5.154 43.7381 5.33297 43.703 5.49552 43.6328C5.65807 43.5627 5.77793 43.4697 5.85182 43.3557C5.92734 43.2417 5.96347 43.1189 5.96347 42.9873C5.96347 42.8891 5.94541 42.8049 5.90764 42.7312C5.86988 42.6593 5.81241 42.5996 5.73688 42.5558C5.65971 42.5119 5.56448 42.4804 5.45119 42.4646C5.38058 42.4558 5.23773 42.44 5.02428 42.419C4.81083 42.3979 4.63022 42.3751 4.47916 42.3505C4.27885 42.3032 4.13272 42.2453 4.03913 42.1804C3.94554 42.1155 3.86837 42.0295 3.8109 41.9243C3.75179 41.819 3.72388 41.705 3.72388 41.584C3.72388 41.4051 3.78299 41.2367 3.90121 41.0788C4.01942 40.9209 4.19511 40.7981 4.42662 40.7104C4.65813 40.6227 4.90935 40.5789 5.18191 40.5789C5.3461 40.5789 5.52343 40.5964 5.71718 40.6315C5.91093 40.6666 6.09154 40.7157 6.25901 40.7806C6.23439 40.8788 6.21632 40.9683 6.20647 41.0507C6.19662 41.1332 6.18841 41.256 6.18349 41.4173H5.9881C5.98153 41.184 5.97332 41.0577 5.96183 41.0367C5.91421 40.9806 5.84853 40.9314 5.76479 40.8876C5.56612 40.7981 5.3576 40.7543 5.14086 40.7543C4.86009 40.7543 4.63679 40.8209 4.46931 40.9525C4.30184 41.0858 4.2181 41.2577 4.2181 41.47C4.2181 41.598 4.24765 41.6962 4.30676 41.7664C4.36587 41.8366 4.47424 41.8927 4.62694 41.9348C4.73366 41.9629 4.90607 41.9909 5.14579 42.0155C5.38551 42.0401 5.60224 42.0664 5.79435 42.0962C5.97496 42.1383 6.10796 42.1892 6.19498 42.2471C6.282 42.3049 6.3526 42.3821 6.40843 42.4768C6.46425 42.5716 6.49217 42.6821 6.49217 42.8101C6.49217 43.1118 6.3329 43.375 6.01601 43.5995C5.69912 43.824 5.28863 43.9363 4.78456 43.9363C4.40364 43.9363 4.05883 43.8767 3.75015 43.7591V43.7574Z" fill="#231F20"/>
<path d="M8.64807 43.2854C8.52328 43.4029 8.39849 43.4906 8.27206 43.5485C8.14564 43.6064 8.01921 43.6345 7.89114 43.6345C7.75157 43.6345 7.64156 43.6029 7.56275 43.5415C7.48394 43.4801 7.44453 43.3924 7.44453 43.2819C7.44453 43.1907 7.46916 43.1065 7.52006 43.0328C7.5529 42.9819 7.59066 42.9433 7.635 42.917C7.70724 42.8732 7.83203 42.8311 8.00936 42.7907C8.18668 42.7504 8.39849 42.7136 8.64807 42.6785V43.2837V43.2854ZM7.43796 42.1049L7.49051 42.0207C7.51021 42.0049 7.56275 41.9856 7.64813 41.961C7.73351 41.9365 7.83367 41.9242 7.94696 41.9242C8.10459 41.9242 8.23923 41.9505 8.34923 42.0014C8.45924 42.0522 8.53641 42.1189 8.58403 42.1996C8.63 42.2803 8.65299 42.3925 8.65135 42.5381C8.40506 42.5592 8.15549 42.5943 7.90263 42.6416C7.65142 42.689 7.46916 42.7328 7.35751 42.7732C7.29183 42.7978 7.2278 42.8363 7.16376 42.8855C7.09973 42.9363 7.04554 43.0047 6.99957 43.0907C6.9536 43.1766 6.93225 43.2731 6.93225 43.3766C6.93225 43.538 6.99793 43.6678 7.12764 43.766C7.25735 43.8643 7.43961 43.9116 7.67276 43.9116C7.78441 43.9116 7.878 43.8958 7.95025 43.866C8.02413 43.8362 8.25729 43.7046 8.65135 43.4696L8.63821 43.8678C8.83196 43.859 8.9863 43.8537 9.10288 43.8537C9.21946 43.8537 9.36231 43.859 9.52157 43.8678V43.7345L9.33275 43.7204C9.27036 43.7187 9.22931 43.7134 9.21125 43.7029C9.18662 43.6906 9.16692 43.6748 9.15542 43.6538C9.14064 43.6204 9.13243 43.5678 9.13243 43.4941V42.8206L9.14557 42.4048C9.14557 42.2592 9.12094 42.1435 9.07004 42.0575C8.99616 41.9382 8.8845 41.8452 8.73345 41.7803C8.58239 41.7154 8.39685 41.6821 8.17683 41.6821C8.02742 41.6821 7.89278 41.6979 7.77292 41.7312C7.61529 41.7733 7.41498 41.8575 7.16869 41.9838C7.17033 42.0224 7.17197 42.0733 7.17197 42.1364C7.17197 42.1961 7.17197 42.2434 7.16869 42.2785L7.32467 42.3101C7.3493 42.2592 7.38871 42.1891 7.43961 42.0996L7.43796 42.1049Z" fill="#231F20"/>
<path d="M9.78594 42.0995V42.003C9.97312 41.9434 10.1209 41.889 10.2309 41.8399V41.1488C10.4329 41.0944 10.5987 41.0365 10.7251 40.9751L10.7957 41.019C10.7744 41.1452 10.7514 41.4242 10.7268 41.8539C10.8795 41.8557 10.9714 41.8574 11.0026 41.8574C11.019 41.8574 11.1175 41.8574 11.2982 41.8539C11.3983 41.8522 11.4722 41.8469 11.5215 41.8399L11.5412 41.8574L11.4804 42.0697C11.3606 42.0679 11.2489 42.0662 11.1471 42.0662C11.0453 42.0662 10.9057 42.0662 10.7251 42.0697L10.712 42.9906C10.7071 43.2169 10.7087 43.3502 10.7169 43.3941C10.7268 43.4379 10.7448 43.4748 10.7711 43.5081C10.7974 43.5414 10.8335 43.566 10.8762 43.5853C10.9189 43.6046 10.9928 43.6204 11.0946 43.6309C11.1734 43.6309 11.2358 43.6274 11.285 43.6221C11.3343 43.6168 11.395 43.6028 11.4689 43.5818L11.5034 43.6765C11.4131 43.7326 11.3244 43.7905 11.2407 43.8501C11.1668 43.8712 11.0995 43.8852 11.0355 43.8922C10.9714 43.8993 10.8992 43.9028 10.8154 43.9028C10.7136 43.9028 10.6315 43.894 10.5708 43.8765C10.51 43.8589 10.4542 43.8344 10.405 43.801C10.3541 43.7677 10.313 43.7274 10.2802 43.6765C10.2473 43.6256 10.226 43.5484 10.2161 43.4414C10.2178 43.3379 10.2211 43.2239 10.2276 43.1029C10.2293 43.0783 10.2309 43.0503 10.2309 43.0222V42.0802H10.111C10.0142 42.0802 9.9058 42.0855 9.7843 42.0942L9.78594 42.0995Z" fill="#231F20"/>
<path d="M12.4228 40.6699C12.5131 40.6699 12.5903 40.6945 12.6543 40.7454C12.7167 40.7962 12.7495 40.8576 12.7495 40.9295C12.7495 41.0015 12.7167 41.0593 12.6543 41.1102C12.5903 41.1611 12.5131 41.1856 12.4244 41.1856C12.3358 41.1856 12.2553 41.1611 12.1913 41.1102C12.1273 41.0593 12.0961 40.9997 12.0961 40.9295C12.0961 40.8594 12.1273 40.7962 12.1913 40.7454C12.2553 40.6945 12.3325 40.6699 12.4244 40.6699H12.4228ZM11.7102 41.9961V41.8627C12.0829 41.8294 12.3965 41.768 12.6494 41.6751L12.7134 41.7101C12.7036 42.0329 12.7003 42.282 12.7003 42.4539V42.8661C12.7101 43.2608 12.7151 43.4748 12.7183 43.5081C12.72 43.5836 12.7315 43.6397 12.7495 43.673C12.7594 43.6871 12.7725 43.6976 12.7873 43.7081C12.8021 43.7186 12.8267 43.7256 12.8579 43.7309C12.8694 43.7327 12.9778 43.7362 13.1814 43.7397V43.873C12.8875 43.8642 12.651 43.859 12.4753 43.859C12.321 43.859 12.0665 43.8642 11.7135 43.873V43.7397L11.9926 43.7362C12.0337 43.7344 12.0649 43.7292 12.0878 43.7186C12.1108 43.7099 12.1273 43.6958 12.1387 43.6818C12.1601 43.6537 12.1732 43.5993 12.1798 43.5222C12.1798 43.5011 12.1847 43.2818 12.1929 42.8661V42.4662C12.1929 42.2416 12.1831 42.1083 12.1634 42.0662C12.1519 42.0434 12.1305 42.0259 12.101 42.0136C12.0714 42.0013 11.9417 41.9961 11.7118 41.9961H11.7102Z" fill="#231F20"/>
<path d="M13.5738 43.1748H13.7413C13.7429 43.2625 13.7495 43.3309 13.7593 43.3835C13.7692 43.4344 13.7856 43.4852 13.8086 43.5344C13.8316 43.5835 13.8677 43.6256 13.9169 43.6607C13.9662 43.6957 14.0187 43.722 14.0762 43.7413C14.1337 43.7606 14.1911 43.7729 14.2503 43.7799C14.3094 43.787 14.3997 43.7905 14.5195 43.7905C14.7166 43.7905 14.8791 43.7501 15.0072 43.6677C15.1336 43.587 15.1976 43.4747 15.1976 43.3326C15.1976 43.2695 15.1779 43.2133 15.1385 43.166C15.0991 43.1186 15.0417 43.08 14.9678 43.0537C14.8939 43.0274 14.7346 42.9923 14.4883 42.9467C14.2437 42.9029 14.0844 42.8713 14.0138 42.852C13.9055 42.8222 13.8201 42.7836 13.756 42.738C13.692 42.6924 13.6411 42.6362 13.605 42.5661C13.5672 42.4977 13.5492 42.4205 13.5492 42.338C13.5492 42.2187 13.5886 42.11 13.669 42.01C13.7495 41.91 13.8743 41.8293 14.0467 41.7662C14.2191 41.7048 14.4062 41.6732 14.6082 41.6732C14.7297 41.6732 14.8709 41.6855 15.0302 41.71C15.1894 41.7346 15.3208 41.7662 15.421 41.8048C15.4078 41.9732 15.398 42.1468 15.393 42.3205H15.2256C15.2157 42.2117 15.2042 42.1416 15.1927 42.1065C15.1796 42.0731 15.1632 42.0416 15.1418 42.0135C15.1205 41.9854 15.0844 41.9574 15.0318 41.9276C14.9793 41.8977 14.912 41.8697 14.8315 41.8469C14.7494 41.8223 14.6492 41.8118 14.5294 41.8118C14.3603 41.8118 14.224 41.8504 14.1205 41.9293C14.0171 42.0082 13.9662 42.0995 13.9662 42.2047C13.9662 42.2626 13.981 42.3117 14.0105 42.3538C14.0401 42.3959 14.0811 42.4292 14.1304 42.4556C14.1813 42.4819 14.2503 42.5047 14.3422 42.5257L14.8233 42.6204C15.0663 42.6678 15.2338 42.7099 15.3257 42.745C15.4177 42.7801 15.4916 42.8327 15.5474 42.9064C15.6032 42.98 15.6311 43.066 15.6311 43.1677C15.6311 43.3712 15.5228 43.5484 15.3077 43.6992C15.0926 43.8501 14.8036 43.9255 14.4424 43.9255C14.2765 43.9255 14.0549 43.9045 13.779 43.8624C13.6263 43.8413 13.5442 43.8255 13.5327 43.815C13.5245 43.8098 13.5212 43.801 13.5212 43.7922C13.5212 43.7799 13.5229 43.7677 13.5278 43.7536C13.5459 43.687 13.5574 43.6238 13.5623 43.5607C13.5689 43.4993 13.5738 43.3677 13.5771 43.1695L13.5738 43.1748Z" fill="#231F20"/>
<path d="M16.035 42.0924V42.003C16.1877 41.9538 16.3223 41.903 16.4389 41.8486V41.7118C16.4389 41.5135 16.4553 41.375 16.4865 41.2925C16.5177 41.2118 16.5637 41.1382 16.6212 41.075C16.7082 40.982 16.8445 40.8628 17.0316 40.7154C17.1564 40.6207 17.25 40.561 17.3091 40.5347C17.3879 40.5032 17.4815 40.4891 17.5866 40.4891C17.6621 40.4891 17.7393 40.4996 17.8181 40.5189L17.8296 40.8961L17.7639 40.9171C17.7048 40.8785 17.6457 40.8505 17.5866 40.8312C17.5275 40.8136 17.4585 40.8031 17.3797 40.8031C17.2763 40.8031 17.1909 40.8207 17.1252 40.854C17.0596 40.8873 17.0119 40.9364 16.9824 40.9978C16.9528 41.0592 16.9381 41.1873 16.9381 41.3785V41.8486H17.2434C17.3978 41.8486 17.5472 41.8433 17.695 41.8346L17.7245 41.8486L17.6671 42.0784C17.4996 42.0731 17.3764 42.0696 17.2976 42.0696C17.2188 42.0696 17.0973 42.0731 16.9381 42.0784V42.8905C16.9381 42.9888 16.943 43.1712 16.9512 43.4361C16.9528 43.5291 16.9578 43.5869 16.966 43.6133C16.9742 43.6396 16.984 43.6571 16.9955 43.6694C17.0087 43.6817 17.0284 43.6904 17.0579 43.6975C17.1154 43.7115 17.2714 43.7238 17.5259 43.7378V43.8711C17.076 43.8623 16.8001 43.8571 16.7016 43.8571C16.6129 43.8571 16.3634 43.8623 15.9562 43.8711V43.7378L16.2353 43.7343C16.2764 43.7325 16.3075 43.7273 16.3305 43.7168C16.3535 43.708 16.3699 43.6939 16.3814 43.6799C16.4028 43.6518 16.4159 43.5975 16.4225 43.5203C16.4225 43.4992 16.4274 43.2817 16.4356 42.8677V42.0766L16.0317 42.0907L16.035 42.0924Z" fill="#231F20"/>
<path d="M19.7476 43.2854C19.6228 43.4029 19.498 43.4906 19.3716 43.5485C19.2451 43.6064 19.1187 43.6345 18.989 43.6345C18.8494 43.6345 18.7394 43.6029 18.6606 43.5415C18.5818 43.4801 18.5424 43.3924 18.5424 43.2819C18.5424 43.1907 18.567 43.1065 18.6179 43.0328C18.6507 42.9819 18.6885 42.9433 18.7328 42.917C18.8051 42.8732 18.9315 42.8311 19.1072 42.7907C19.2845 42.7504 19.4963 42.7136 19.7459 42.6785V43.2837L19.7476 43.2854ZM18.5375 42.1049L18.59 42.0207C18.6097 42.0049 18.6622 41.9856 18.7476 41.961C18.833 41.9365 18.9332 41.9242 19.0464 41.9242C19.2041 41.9242 19.3387 41.9505 19.4487 42.0014C19.5587 42.0522 19.6359 42.1189 19.6835 42.1996C19.7295 42.2803 19.7525 42.3925 19.7508 42.5381C19.5045 42.5592 19.255 42.5943 19.0021 42.6416C18.7509 42.689 18.5686 42.7328 18.457 42.7732C18.3913 42.7978 18.3273 42.8363 18.2633 42.8855C18.1992 42.9363 18.145 43.0047 18.0991 43.0907C18.0531 43.1766 18.0317 43.2731 18.0317 43.3766C18.0317 43.538 18.0974 43.6678 18.2271 43.766C18.3568 43.8643 18.5391 43.9116 18.7722 43.9116C18.8839 43.9116 18.9775 43.8958 19.0497 43.866C19.1236 43.8362 19.3568 43.7046 19.7508 43.4696L19.7377 43.8678C19.9314 43.859 20.0858 43.8537 20.2024 43.8537C20.3189 43.8537 20.4618 43.859 20.6211 43.8678V43.7345L20.4322 43.7204C20.3698 43.7187 20.3288 43.7134 20.3107 43.7029C20.2861 43.6906 20.2664 43.6748 20.2549 43.6538C20.2401 43.6204 20.2319 43.5678 20.2319 43.4941V42.8206L20.2451 42.4048C20.2451 42.2592 20.2204 42.1435 20.1695 42.0575C20.0956 41.9382 19.984 41.8452 19.8329 41.7803C19.6819 41.7154 19.4963 41.6821 19.2763 41.6821C19.1269 41.6821 18.9923 41.6979 18.8724 41.7312C18.7148 41.7733 18.5145 41.8575 18.2682 41.9838C18.2698 42.0224 18.2715 42.0733 18.2715 42.1364C18.2715 42.1961 18.2715 42.2434 18.2682 42.2785L18.4242 42.3101C18.4488 42.2592 18.4882 42.1891 18.5391 42.0996L18.5375 42.1049Z" fill="#231F20"/>
<path d="M23.2661 43.6098L23.1512 43.7641C23.0182 43.8203 22.8869 43.8624 22.7571 43.8887C22.6274 43.915 22.4797 43.929 22.3171 43.929C21.9132 43.929 21.5914 43.8326 21.3516 43.6414C21.1119 43.4502 20.9921 43.187 20.9921 42.852C20.9921 42.6748 21.0249 42.5205 21.0889 42.3889C21.153 42.2573 21.2334 42.1573 21.327 42.0872C21.3911 42.0363 21.5109 41.9714 21.6899 41.8925C21.8672 41.8118 21.992 41.7609 22.0642 41.7399C22.1956 41.696 22.3516 41.6732 22.5355 41.6732C22.7095 41.6732 22.8639 41.689 23.0034 41.7188C23.0921 41.7364 23.1808 41.7679 23.2694 41.8135C23.2464 41.9293 23.2317 42.0188 23.2218 42.0784C23.212 42.1381 23.2005 42.2486 23.1857 42.4064H23.0182C23.0067 42.2591 22.9952 42.1661 22.9837 42.1293C22.9755 42.1065 22.9591 42.0854 22.9312 42.0679C22.8622 42.0258 22.7736 41.989 22.6635 41.9574C22.5552 41.9258 22.4353 41.91 22.3073 41.91C22.1463 41.91 22.0051 41.9363 21.8869 41.9872C21.7687 42.0398 21.6767 42.1223 21.6111 42.2345C21.5454 42.3485 21.5126 42.4889 21.5126 42.6555C21.5126 42.859 21.5585 43.0449 21.6505 43.2098C21.7424 43.3765 21.8689 43.4975 22.0265 43.5729C22.1857 43.6484 22.3631 43.687 22.5585 43.687C22.657 43.687 22.7522 43.6764 22.8458 43.6571C22.9394 43.6378 23.0593 43.601 23.2054 43.5484L23.2661 43.6063V43.6098Z" fill="#231F20"/>
<path d="M23.5157 42.0995V42.003C23.7029 41.9434 23.8507 41.889 23.9607 41.8399V41.1488C24.1627 41.0944 24.3269 41.0365 24.4549 40.9751L24.5255 41.019C24.5042 41.1452 24.4812 41.4242 24.4566 41.8539C24.6093 41.8557 24.7012 41.8574 24.7324 41.8574C24.7488 41.8574 24.8473 41.8574 25.028 41.8539C25.1265 41.8522 25.202 41.8469 25.2513 41.8399L25.271 41.8574L25.2102 42.0697C25.0904 42.0679 24.9787 42.0662 24.8769 42.0662C24.7751 42.0662 24.6355 42.0662 24.4549 42.0697L24.4418 42.9906C24.4369 43.2169 24.4385 43.3502 24.4467 43.3941C24.4566 43.4379 24.4746 43.4748 24.5009 43.5081C24.5272 43.5414 24.5617 43.566 24.606 43.5853C24.6487 43.6046 24.7226 43.6204 24.8244 43.6309C24.9032 43.6309 24.9656 43.6274 25.0148 43.6221C25.0641 43.6168 25.1248 43.6028 25.2004 43.5818L25.2348 43.6765C25.1445 43.7326 25.0559 43.7905 24.9721 43.8501C24.8982 43.8712 24.8309 43.8852 24.7669 43.8922C24.7029 43.8993 24.6306 43.9028 24.5469 43.9028C24.4451 43.9028 24.363 43.894 24.3022 43.8765C24.2415 43.8589 24.1857 43.8344 24.1364 43.801C24.0871 43.7677 24.0444 43.7274 24.0116 43.6765C23.9788 43.6256 23.9574 43.5484 23.9476 43.4414C23.9492 43.3379 23.9525 43.2239 23.9591 43.1029C23.9607 43.0783 23.9624 43.0503 23.9624 43.0222V42.0802H23.8425C23.7456 42.0802 23.6372 42.0855 23.5157 42.0942V42.0995Z" fill="#231F20"/>
<path d="M26.151 40.6699C26.243 40.6699 26.3185 40.6945 26.3825 40.7454C26.4449 40.7962 26.4778 40.8576 26.4778 40.9295C26.4778 41.0015 26.4449 41.0593 26.3825 41.1102C26.3185 41.1611 26.2413 41.1856 26.1527 41.1856C26.064 41.1856 25.9835 41.1611 25.9195 41.1102C25.8555 41.0593 25.8243 40.9997 25.8243 40.9295C25.8243 40.8594 25.8555 40.7962 25.9195 40.7454C25.9835 40.6945 26.0607 40.6699 26.1527 40.6699H26.151ZM25.4401 41.9961V41.8627C25.8128 41.8294 26.1264 41.768 26.3792 41.6751L26.4433 41.7101C26.4334 42.0329 26.4301 42.282 26.4301 42.4539V42.8661C26.44 43.2608 26.4449 43.4748 26.4482 43.5081C26.4498 43.5836 26.4613 43.6397 26.4794 43.673C26.4893 43.6871 26.5024 43.6976 26.5172 43.7081C26.5319 43.7186 26.5566 43.7256 26.5878 43.7309C26.5993 43.7327 26.7076 43.7362 26.9112 43.7397V43.873C26.6173 43.8642 26.3809 43.859 26.2052 43.859C26.0509 43.859 25.7964 43.8642 25.4433 43.873V43.7397L25.7225 43.7362C25.7635 43.7344 25.7947 43.7292 25.8177 43.7186C25.8407 43.7099 25.8571 43.6958 25.8686 43.6818C25.89 43.6537 25.9031 43.5993 25.9097 43.5222C25.9097 43.5011 25.9146 43.2818 25.9228 42.8661V42.4662C25.9228 42.2416 25.9129 42.1083 25.8932 42.0662C25.8817 42.0434 25.8604 42.0259 25.8308 42.0136C25.8013 42.0013 25.6716 41.9961 25.4417 41.9961H25.4401Z" fill="#231F20"/>
<path d="M28.0047 42.0275C28.1524 41.8942 28.3446 41.8276 28.581 41.8276C28.7485 41.8276 28.9012 41.8627 29.0407 41.9346C29.1786 42.0065 29.2936 42.1293 29.3822 42.3029C29.4709 42.4766 29.5169 42.6853 29.5169 42.9257C29.5169 43.2151 29.4414 43.4291 29.2919 43.5677C29.1425 43.7063 28.9553 43.7764 28.732 43.7764C28.5564 43.7764 28.3938 43.7326 28.246 43.6431C28.0966 43.5554 27.9833 43.4151 27.9045 43.2221C27.8257 43.0309 27.7863 42.8415 27.7863 42.6573C27.7863 42.3731 27.8602 42.1626 28.008 42.0293L28.0047 42.0275ZM27.366 43.3537C27.4169 43.4484 27.4891 43.5414 27.586 43.6308C27.6829 43.7203 27.8093 43.7957 27.9636 43.8536C28.1196 43.9132 28.3084 43.9413 28.5334 43.9413C28.8207 43.9413 29.0851 43.8887 29.3248 43.7852C29.5645 43.6817 29.75 43.5379 29.8814 43.3554C30.0127 43.173 30.0784 42.9713 30.0784 42.7485C30.0784 42.4327 29.9504 42.1731 29.6959 41.9732C29.4414 41.7732 29.1097 41.6732 28.7041 41.6732C28.2739 41.6732 27.9193 41.7802 27.6451 41.9942C27.3692 42.2082 27.2313 42.4854 27.2313 42.8257C27.2313 43.0134 27.2757 43.1888 27.3643 43.3519L27.366 43.3537Z" fill="#231F20"/>
<path d="M30.3478 43.873V43.7397L30.6269 43.7362C30.668 43.7344 30.6992 43.7292 30.7221 43.7186C30.7451 43.7099 30.7615 43.6958 30.773 43.6818C30.7944 43.6537 30.8075 43.5994 30.8141 43.5239C30.8141 43.5029 30.819 43.2854 30.8272 42.8714V42.603C30.8272 42.482 30.8223 42.3522 30.8141 42.2136C30.8075 42.1259 30.7993 42.0733 30.7862 42.0557C30.773 42.0399 30.7517 42.0276 30.7221 42.0189C30.6909 42.0101 30.5662 42.0066 30.3478 42.0084V41.875C30.7369 41.8329 31.021 41.7768 31.1999 41.7101C31.2377 41.6944 31.264 41.6873 31.2788 41.6873C31.2935 41.6873 31.3034 41.6908 31.3099 41.6979C31.3182 41.7049 31.3214 41.7172 31.3214 41.7312C31.3214 41.74 31.3214 41.7522 31.3198 41.7645C31.3165 41.8189 31.3116 41.9329 31.3083 42.1048L31.8452 41.7417C32.0028 41.6944 32.1523 41.6716 32.2918 41.6716C32.4478 41.6716 32.5956 41.6961 32.7351 41.747C32.8747 41.7979 32.9798 41.861 33.0488 41.9364C33.1194 42.0119 33.1653 42.1083 33.1883 42.2241C33.2015 42.2925 33.208 42.482 33.208 42.796V43.1994C33.208 43.3976 33.2129 43.5309 33.2212 43.6029C33.231 43.6467 33.2458 43.6783 33.2671 43.6958C33.2868 43.7134 33.3197 43.7239 33.3624 43.7274L33.6743 43.7362V43.8695C33.4871 43.8607 33.3312 43.8555 33.2064 43.8555C33.0997 43.8555 32.9207 43.8607 32.6727 43.8695C32.6957 43.4941 32.7072 43.2573 32.7072 43.1591V42.7749C32.7072 42.5363 32.6957 42.3802 32.6727 42.3066C32.6399 42.2031 32.566 42.1206 32.4511 42.0592C32.3362 41.9978 32.1966 41.9663 32.034 41.9663C31.8895 41.9663 31.7582 41.9943 31.64 42.0469C31.5218 42.1013 31.4364 42.1645 31.3855 42.2346C31.3346 42.3048 31.3099 42.4241 31.3099 42.5925V42.8644C31.3198 43.2591 31.3231 43.4731 31.3231 43.5046C31.3264 43.5801 31.3379 43.6344 31.3576 43.6695C31.3658 43.6836 31.3773 43.6941 31.392 43.7046C31.4068 43.7151 31.4315 43.7222 31.4643 43.7274C31.4758 43.7292 31.5825 43.7327 31.7828 43.7362V43.8695C31.5464 43.8607 31.3329 43.8555 31.1425 43.8555C30.9799 43.8555 30.7156 43.8607 30.3478 43.8695V43.873Z" fill="#231F20"/>
<path d="M37.0453 43.7256V43.8712C36.6348 43.8624 36.3639 43.8571 36.2342 43.8571L35.3394 43.8712V43.7256C35.5676 43.7238 35.7055 43.715 35.7564 43.7028C35.8057 43.6887 35.8418 43.6712 35.8598 43.6501C35.8828 43.6186 35.8976 43.5466 35.9025 43.4309C35.9042 43.3975 35.9091 43.1835 35.9157 42.7853V41.7328C35.9157 41.5259 35.9107 41.3241 35.9025 41.1277C35.896 40.9856 35.8828 40.8996 35.8615 40.8733C35.8401 40.847 35.804 40.826 35.7548 40.8137C35.7055 40.8014 35.5676 40.7926 35.3394 40.7891V40.6435C35.7088 40.6523 35.9928 40.6576 36.1932 40.6576C36.3935 40.6576 36.6693 40.6523 37.0437 40.6435V40.7891C36.8138 40.7926 36.6742 40.8014 36.6266 40.8137C36.5774 40.826 36.5429 40.8435 36.5248 40.8681C36.5018 40.8996 36.4871 40.9733 36.4821 41.0891C36.4805 41.1207 36.4756 41.3347 36.469 41.7346V42.7871C36.469 42.9941 36.4723 43.1941 36.4772 43.3905C36.4838 43.5326 36.4969 43.6186 36.5199 43.6449C36.5429 43.6712 36.5774 43.6922 36.6266 43.7063C36.6759 43.7203 36.8155 43.7273 37.047 43.7291L37.0453 43.7256Z" fill="#231F20"/>
<path d="M37.2719 43.873V43.7397L37.551 43.7362C37.5921 43.7344 37.6233 43.7292 37.6463 43.7186C37.6693 43.7099 37.6857 43.6958 37.6972 43.6818C37.7185 43.6537 37.7316 43.5994 37.7382 43.5239C37.7382 43.5029 37.7431 43.2854 37.7513 42.8714V42.603C37.7513 42.482 37.7464 42.3522 37.7382 42.2136C37.7316 42.1259 37.7234 42.0733 37.7103 42.0557C37.6972 42.0399 37.6758 42.0276 37.6463 42.0189C37.6151 42.0101 37.4903 42.0066 37.2719 42.0084V41.875C37.661 41.8329 37.9451 41.7768 38.1241 41.7101C38.1618 41.6944 38.1881 41.6873 38.2029 41.6873C38.2177 41.6873 38.2275 41.6908 38.2341 41.6979C38.2423 41.7049 38.2456 41.7172 38.2456 41.7312C38.2456 41.74 38.2456 41.7522 38.2439 41.7645C38.2406 41.8189 38.2357 41.9329 38.2324 42.1048L38.7693 41.7417C38.927 41.6944 39.0764 41.6716 39.2159 41.6716C39.3719 41.6716 39.5197 41.6961 39.6576 41.747C39.7972 41.7979 39.9023 41.861 39.9712 41.9364C40.0418 42.0119 40.0878 42.1083 40.1108 42.2241C40.1239 42.2925 40.1305 42.482 40.1305 42.796V43.1994C40.1305 43.3976 40.1354 43.5309 40.1436 43.6029C40.1535 43.6467 40.1683 43.6783 40.1896 43.6958C40.2093 43.7134 40.2422 43.7239 40.2848 43.7274L40.5968 43.7362V43.8695C40.4096 43.8607 40.2536 43.8555 40.1289 43.8555C40.0221 43.8555 39.8432 43.8607 39.5952 43.8695C39.6182 43.4941 39.6297 43.2573 39.6297 43.1591V42.7749C39.6297 42.5363 39.6182 42.3802 39.5952 42.3066C39.5624 42.2031 39.4885 42.1206 39.3736 42.0592C39.2586 41.9978 39.1191 41.9663 38.9565 41.9663C38.812 41.9663 38.6807 41.9943 38.5625 42.0469C38.4442 42.1013 38.3589 42.1645 38.308 42.2346C38.2571 42.3048 38.2324 42.4241 38.2324 42.5925V42.8644C38.2423 43.2591 38.2456 43.4731 38.2456 43.5046C38.2489 43.5801 38.2603 43.6344 38.28 43.6695C38.2883 43.6836 38.2998 43.6941 38.3145 43.7046C38.3293 43.7151 38.3539 43.7222 38.3868 43.7274C38.3983 43.7292 38.505 43.7327 38.7053 43.7362V43.8695C38.4689 43.8607 38.2554 43.8555 38.065 43.8555C37.9024 43.8555 37.6381 43.8607 37.2703 43.8695L37.2719 43.873Z" fill="#231F20"/>
<path d="M43.0794 42.5995C43.0794 42.8626 43.0712 43.0258 43.0564 43.0924C43.0351 43.1924 42.9842 43.2836 42.9054 43.3661C42.8265 43.4485 42.7362 43.5099 42.6344 43.552C42.5326 43.5941 42.4177 43.6152 42.2896 43.6152C42.0433 43.6152 41.8332 43.538 41.6591 43.3819C41.4851 43.2257 41.3964 43.01 41.3964 42.7311C41.3964 42.5504 41.4309 42.3978 41.5015 42.268C41.5721 42.1399 41.6739 42.0435 41.8069 41.9803C41.9399 41.9172 42.086 41.8838 42.2437 41.8838C42.3832 41.8838 42.5244 41.9101 42.6673 41.9628C42.8118 42.0154 42.948 42.0978 43.0794 42.2119V42.5995ZM43.0006 40.8155C43.0219 40.8226 43.0367 40.8348 43.0449 40.8524C43.0679 40.8962 43.0794 41.0225 43.0794 41.2295V41.8207C42.9694 41.7716 42.8561 41.7365 42.7395 41.7119C42.6229 41.6874 42.5031 41.6751 42.3816 41.6751C42.2469 41.6751 42.1222 41.6944 42.0072 41.733C41.8923 41.7716 41.7429 41.8347 41.5573 41.9224C41.3718 42.0101 41.2536 42.075 41.201 42.1171C41.1091 42.1908 41.0319 42.2961 40.9712 42.4311C40.9104 42.5662 40.8809 42.7118 40.8809 42.8644C40.8809 43.0661 40.9301 43.2486 41.0303 43.4099C41.1304 43.5713 41.2716 43.6959 41.4539 43.7801C41.6378 43.866 41.8381 43.9081 42.0565 43.9081C42.1747 43.9081 42.3093 43.8923 42.4653 43.8607C42.5392 43.8046 42.641 43.7327 42.7707 43.645C42.9004 43.5573 43.0039 43.4924 43.081 43.4485C43.0778 43.6257 43.0728 43.7678 43.0679 43.873C43.3257 43.8643 43.4948 43.859 43.5785 43.859C43.6754 43.859 43.8413 43.8643 44.0777 43.873V43.7397C43.8774 43.7257 43.7575 43.7134 43.7165 43.6994C43.6754 43.6853 43.6475 43.6678 43.6294 43.6467C43.6114 43.6239 43.5999 43.5573 43.5933 43.445C43.5868 43.3328 43.5835 43.1994 43.5835 43.0451V41.6277L43.5933 41.2664C43.6015 40.898 43.6097 40.6507 43.618 40.5244L43.5802 40.5033C43.439 40.5401 43.2945 40.5717 43.1467 40.5963C42.9989 40.6208 42.8167 40.6436 42.6032 40.6629V40.7963C42.8315 40.7963 42.9661 40.8033 43.0055 40.8155H43.0006Z" fill="#231F20"/>
<path d="M45.1612 42.01C45.2959 41.889 45.4715 41.8276 45.6916 41.8276C45.9001 41.8276 46.0659 41.8837 46.1907 41.9942C46.3155 42.1047 46.3779 42.2801 46.3779 42.5187C46.3779 42.538 46.3779 42.5661 46.3746 42.6029C46.2925 42.6099 46.1234 42.6152 45.864 42.6152C45.7556 42.6152 45.5553 42.6117 45.2663 42.6029C45.1153 42.5994 45.0118 42.5941 44.9576 42.5889C44.9593 42.3257 45.0282 42.1328 45.1612 42.0118V42.01ZM46.7752 43.4817C46.6028 43.5607 46.4567 43.615 46.3401 43.6449C46.2236 43.6747 46.1053 43.6905 45.9871 43.6905C45.8131 43.6905 45.644 43.6589 45.483 43.594C45.3205 43.5308 45.1941 43.4309 45.1021 43.2958C45.0102 43.1607 44.9626 42.9853 44.9576 42.7678H45.8902C46.0988 42.7678 46.3089 42.7625 46.5175 42.7502C46.6275 42.745 46.7523 42.731 46.8918 42.7099C46.9017 42.6485 46.905 42.5959 46.905 42.5538C46.905 42.3871 46.8639 42.2363 46.7834 42.103C46.703 41.9697 46.5749 41.8644 46.3992 41.789C46.2252 41.7118 46.0282 41.6732 45.8114 41.6732C45.6341 41.6732 45.4683 41.6978 45.3156 41.7486C45.199 41.7855 45.0824 41.8346 44.9642 41.8977C44.846 41.9609 44.759 42.0153 44.7031 42.0644C44.626 42.1328 44.557 42.2363 44.4962 42.3766C44.4355 42.5169 44.4043 42.6731 44.4043 42.8467C44.4043 43.0695 44.4618 43.2625 44.5767 43.4291C44.6916 43.5957 44.8525 43.7203 45.0594 43.8027C45.2663 43.8852 45.4978 43.9273 45.7523 43.9273C45.882 43.9273 46.0052 43.9168 46.1218 43.8957C46.2383 43.8747 46.3418 43.8466 46.4337 43.8133C46.4961 43.7922 46.593 43.7484 46.726 43.6817L46.8179 43.5203L46.772 43.4817H46.7752Z" fill="#231F20"/>
<path d="M47.2021 43.8729V43.7396C47.2941 43.7396 47.3663 43.7291 47.4189 43.708C47.4878 43.6764 47.5814 43.608 47.6996 43.4993L48.3745 42.8467L48.1282 42.5626C47.9968 42.4082 47.8688 42.2696 47.7456 42.1468C47.6225 42.024 47.519 41.9451 47.4386 41.9083C47.4074 41.8925 47.3713 41.8855 47.3286 41.8855C47.3105 41.8855 47.281 41.8872 47.2366 41.8907L47.2021 41.7574C47.4254 41.7399 47.652 41.7118 47.8819 41.6732C47.9558 41.7258 48.0231 41.782 48.0839 41.8416C48.1889 41.9486 48.3186 42.0942 48.4713 42.2801L48.6864 42.5485L48.8654 42.3661C49.0066 42.2258 49.2037 42.01 49.4598 41.7223C49.5599 41.7276 49.6355 41.7293 49.6847 41.7293C49.7307 41.7293 49.803 41.7276 49.9015 41.7223V41.8556C49.8161 41.8556 49.7521 41.8679 49.7094 41.8907C49.6207 41.9381 49.4729 42.0591 49.2693 42.2556L48.9951 42.5134L48.8178 42.6941L48.9245 42.8204C48.9705 42.8748 49.0936 43.0099 49.2956 43.2274C49.4959 43.4449 49.6388 43.5887 49.7209 43.6589C49.7635 43.694 49.798 43.7168 49.8276 43.7256C49.8571 43.7343 49.913 43.7396 49.9983 43.7396V43.8729C49.8637 43.8624 49.7438 43.8571 49.6355 43.8571C49.5222 43.8571 49.404 43.8624 49.2792 43.8729C49.1544 43.7501 49.0444 43.6326 48.9442 43.5186L48.5025 42.9976C48.2875 43.1958 48.0198 43.487 47.7013 43.8729C47.6241 43.8624 47.5404 43.8571 47.4484 43.8571C47.3565 43.8571 47.2744 43.8624 47.1989 43.8729H47.2021Z" fill="#231F20"/>
<path d="M13.9302 37.4932C14.055 37.3651 14.2175 37.3002 14.4178 37.3002C14.559 37.3002 14.6887 37.3335 14.807 37.402C14.9252 37.4704 15.0204 37.5879 15.0976 37.7545C15.1731 37.9212 15.2109 38.1194 15.2109 38.3509C15.2109 38.6281 15.1468 38.8316 15.0204 38.9649C14.894 39.0982 14.7347 39.1631 14.5459 39.1631C14.3981 39.1631 14.2602 39.121 14.1338 39.0351C14.0073 38.9509 13.9105 38.8158 13.8431 38.6334C13.7758 38.4492 13.743 38.2703 13.743 38.0931C13.743 37.8194 13.8054 37.6195 13.9302 37.4914V37.4932ZM13.39 38.7632C13.4327 38.8544 13.4951 38.9421 13.5772 39.028C13.6592 39.114 13.766 39.1842 13.8973 39.2421C14.0287 39.2982 14.1896 39.3263 14.3801 39.3263C14.6247 39.3263 14.848 39.2754 15.05 39.1771C15.2536 39.0772 15.4095 38.9403 15.5212 38.7649C15.6328 38.5895 15.6887 38.3966 15.6887 38.1843C15.6887 37.8808 15.5803 37.6335 15.3652 37.4423C15.1485 37.2511 14.8693 37.1546 14.5262 37.1546C14.1617 37.1546 13.8612 37.2564 13.6281 37.4616C13.3949 37.6668 13.2783 37.9317 13.2783 38.258C13.2783 38.4369 13.3161 38.6053 13.3916 38.7632H13.39Z" fill="#231F20"/>
</g>
<defs>
<clipPath id="clip0_1926_403">
<rect width="50" height="43.2432" fill="white" transform="translate(0 0.698196)"/>
</clipPath>
</defs>
</svg>
