<?xml version="1.0" encoding="UTF-8"?>
<svg id="Layer_1" xmlns="http://www.w3.org/2000/svg" viewBox="0 0 92 23">
  <defs>
    <style>
      .cls-1 {
        fill: #da2631;
      }

      .cls-2 {
        fill: #b2b2b2;
      }
    </style>
  </defs>
  <path class="cls-1" d="M39.54,10.99l7.76-8.71h-5.07l-6.37,7.42V2.28h-4.31v18.44h4.31v-8.07l4.92,6.22c.94,1.18,2.37,1.86,3.87,1.86h2.94l-8.06-9.73h0ZM82.13,17.86v-5.4c0-3.89-1.8-5.7-5.67-5.7-1.57,0-3.1.43-4.55,1.27l-.16.09.02.29c.03.48.3.93.72,1.19.42.26.92.31,1.38.13.7-.28,1.45-.42,2.2-.43,2.04,0,2.9.79,2.98,2.78-.81-.04-1.45-.04-2.3-.04-2.42,0-6.5.97-6.5,4.6,0,2.78,1.89,4.37,5.2,4.37,2.04,0,3.32-.94,3.98-1.65.29.81,1.06,1.35,1.92,1.34h.93l-.05-.34c-.07-.5-.1-1.32-.1-2.52ZM79.06,14.5v.86c0,1.93-1.3,3.13-3.4,3.13-.88,0-2.18-.58-2.18-1.82,0-1.92,2.7-2.21,4.32-2.21.26,0,.51.01.77.02.16.01.33.02.49.02ZM91.7,6.95c-.53-.12-1.08-.18-1.63-.17-1.26,0-2.56.73-3.36,1.84-.35-.93-1.24-1.54-2.23-1.53h-.54v13.65h3.07v-6.24c0-3.05,1.3-5.02,3.33-5.02.48,0,.9.07,1.24.21l.43.17v-2.84l-.3-.06h0ZM68.96,16.59l-.26.12s-.39.18-.53.24c-1.01.44-2.56.78-3.59.78-3.54,0-6.11-2.62-6.11-6.23s2.56-6.22,6.23-6.22c.54,0,1.08.06,1.59.18.65.15,1.34.02,1.88-.36.55-.39.89-.98.94-1.63l.04-.54-.37-.16c-1.24-.54-2.62-.79-4.21-.79-5.85,0-9.93,3.89-9.93,9.45s3.89,9.6,9.91,9.6c1.74,0,3.17-.22,4.25-.66l.37-.15-.23-3.63h0Z"/>
  <path class="cls-1" d="M22.41,0c-5.47.43-9.84,4.7-10.28,10.06-.04.49.38.9.88.9h9.44c.48,0,.87-.38.88-.85,0,0,0,0,0,0V.86c0-.49-.42-.9-.92-.86h0Z"/>
  <path class="cls-2" d="M12.13,12.94c.44,5.36,4.81,9.62,10.27,10.06.47.03.88-.33.92-.8,0-.02,0-.04,0-.06v-9.24c0-.48-.39-.86-.88-.86h-9.44c-.5,0-.92.41-.88.9h0Z"/>
  <path class="cls-1" d="M10.15.16H.88c-.48,0-.88.38-.88.86v9.07c0,.48.39.86.88.86h9.26c.48,0,.88-.38.88-.86V1.03c0-.48-.4-.87-.88-.86Z"/>
  <path class="cls-2" d="M10.15,12.04H.88c-.48,0-.88.38-.88.86v9.07c0,.48.39.86.88.86h9.26c.48,0,.88-.38.88-.86v-9.07c0-.48-.4-.87-.88-.86Z"/>
</svg>