<svg width="120" height="30" viewBox="0 0 120 30" xmlns="http://www.w3.org/2000/svg">
    <g fill="#FFF" fill-rule="nonzero">
        <path d="M51.577 14.337 61.698 2.98h-6.61l-8.31 9.682V2.98H41.15v24.05h5.626V16.499l6.422 8.11a6.44 6.44 0 0 0 5.05 2.423h3.842L51.577 14.337zM107.125 23.301v-7.038c0-5.072-2.35-7.433-7.39-7.433-2.05 0-4.045.558-5.934 1.66l-.21.122.027.374c.042.63.392 1.21.936 1.553.545.338 1.199.4 1.796.169a8.012 8.012 0 0 1 2.873-.554c2.664 0 3.784 1.025 3.888 3.632-1.057-.046-1.894-.046-2.998-.046-3.151 0-8.479 1.265-8.479 5.999 0 3.622 2.47 5.696 6.778 5.696 2.663 0 4.328-1.23 5.197-2.151a2.647 2.647 0 0 0 2.506 1.747h1.21l-.063-.446c-.09-.65-.137-1.726-.137-3.284zm-4.003-4.385v1.117c0 2.515-1.701 4.078-4.438 4.078-1.146 0-2.837-.753-2.837-2.377 0-2.505 3.528-2.88 5.631-2.88.335 0 .67.016 1.005.031.21.016.424.026.639.031zM119.613 9.06c-.65-.128-1.162-.225-2.125-.225-1.649 0-3.34.953-4.386 2.402a3.095 3.095 0 0 0-2.91-2.003h-.706v17.802h4.003V18.9c0-3.975 1.701-6.547 4.34-6.547.627 0 1.171.092 1.616.272l.555.225V9.142l-.387-.082zM89.949 21.641l-.335.16s-.513.24-.696.317c-1.324.579-3.334 1.014-4.679 1.014-4.616 0-7.965-3.417-7.965-8.12 0-4.779 3.344-8.119 8.133-8.119.706 0 1.407.082 2.077.241.848.2 1.743.03 2.45-.471a2.902 2.902 0 0 0 1.23-2.131l.057-.702-.481-.21c-1.618-.697-3.413-1.035-5.496-1.035-7.63 0-12.958 5.072-12.958 12.33 0 7.608 5.071 12.525 12.927 12.525 2.271 0 4.14-.292 5.548-.865l.486-.2-.298-4.734z"/>
        <g>
            <path d="M29.23.003c-7.14.564-12.828 6.137-13.404 13.12-.052.64.492 1.173 1.146 1.173h12.31a1.13 1.13 0 0 0 1.146-1.122V1.125c0-.64-.55-1.173-1.199-1.122zM15.821 16.877c.576 6.988 6.27 12.556 13.403 13.12a1.122 1.122 0 0 0 1.199-1.122V16.826a1.13 1.13 0 0 0-1.147-1.122H16.967c-.649 0-1.198.533-1.146 1.173zM13.236.213H1.15A1.14 1.14 0 0 0 0 1.34V13.17c0 .62.513 1.127 1.151 1.127h12.085a1.14 1.14 0 0 0 1.151-1.127V1.34c0-.62-.518-1.127-1.151-1.127zM13.236 15.704H1.15A1.14 1.14 0 0 0 0 16.831V28.66c0 .62.513 1.127 1.151 1.127h12.085a1.14 1.14 0 0 0 1.151-1.127V16.83a1.14 1.14 0 0 0-1.151-1.127z"/>
        </g>
    </g>
</svg>
