<svg xmlns="http://www.w3.org/2000/svg" viewBox="0 0 131.01 44.01" id="" class="svg replaced-svg">
    <defs>
        <style>
            .logoCls {
                fill: #fff;
            }
        </style>
    </defs>
	<g>
		<path class="logoCls logoCls1" d="M14.24,28.18C6.55,28.18,0,22.44,0,14.26A13.73,13.73,0,0,1,13.83.37c5.91,0,9.53,2.47,11.82,5.83L20.15,9.91A6.78,6.78,0,0,0,14,6.67c-4,0-6.47,3.31-6.47,7.58S10,21.88,14.2,21.88a6.57,6.57,0,0,0,6.43-3.75l5.63,3.59c-2.7,4.51-6.47,6.46-12,6.46Z"></path>
		<path class="logoCls logoCls1" d="M28.67.69H36v21H47.61v6.11H28.67Z"></path>
		<path class="logoCls logoCls1" d="M56.34,27.82H49.18L62.48.21c.12-.28.37-.28.48,0L76.23,27.82H68.67l-1-2.31H57.33l-1,2.31Zm6.07-14-2.74,6.3h5.55l-2.82-6.3Z"></path>
		<path class="logoCls logoCls1" d="M83.68,28.1a.25.25,0,0,1-.48,0L70.33.69h7.8l5.59,12.65L89.14.69h7.44Z"></path>
		<path class="logoCls logoCls1" d="M99.28.69h7.32V27.82H99.28Z"></path>
		<path class="logoCls logoCls1" d="M109.29,23.19l5.31-3.95a6.92,6.92,0,0,0,5.71,2.95c2.17,0,3.46-.64,3.46-2.15,0-1.16-.89-1.72-2.7-2.31l-3.22-1.08c-4-1.31-6.8-3.71-6.8-8.18,0-5.34,4.47-8.1,9.33-8.1s7.48,1.72,9.09,3.59L125.3,8.32a5.68,5.68,0,0,0-4.51-2c-1.77,0-2.66.8-2.66,1.88s.6,1.56,1.93,2l3.62,1.2c5.47,1.8,7.32,4.39,7.32,8.22,0,5-3.13,8.57-10.38,8.57-6.15,0-9.65-2.79-11.34-5Z"></path>
		<path class="logoCls logoCls2" d="M5.88,43.91,3.52,37.79h0c0,.48.06,1.06.06,1.72v4.39H2.8V37H4l2.2,5.69h0L8.48,37H9.69v6.9H8.88V39.46c0-.51,0-1.06.06-1.66h0L6.53,43.91H5.88Z"></path>
		<path class="logoCls logoCls2" d="M18.61,43.91l-.15-.73h0a2.19,2.19,0,0,1-.78.66,2.44,2.44,0,0,1-1,.17,1.74,1.74,0,0,1-1.22-.39A1.44,1.44,0,0,1,15,42.48c0-1,.84-1.6,2.53-1.64l.89,0v-.32a1.31,1.31,0,0,0-.27-.9,1.09,1.09,0,0,0-.84-.29,3.45,3.45,0,0,0-1.48.39l-.24-.6a3.52,3.52,0,0,1,.84-.32,3.59,3.59,0,0,1,.92-.12,2,2,0,0,1,1.38.41,1.69,1.69,0,0,1,.45,1.31V43.9h-.57Zm-1.79-.56a1.62,1.62,0,0,0,1.16-.4,1.46,1.46,0,0,0,.42-1.12v-.47l-.79,0a2.94,2.94,0,0,0-1.36.29.87.87,0,0,0-.41.8.8.8,0,0,0,.26.64,1.09,1.09,0,0,0,.72.23Z"></path>
		<path class="logoCls logoCls2" d="M26.42,43.36a2.24,2.24,0,0,0,.41,0l.31-.06v.6a1.75,1.75,0,0,1-.38.1,2.35,2.35,0,0,1-.45,0c-1,0-1.51-.52-1.51-1.58V39.34h-.75V39l.75-.32.33-1.1h.45v1.2H27.1v.61H25.59v3a1,1,0,0,0,.23.72.78.78,0,0,0,.62.25Z"></path>
		<path class="logoCls logoCls2" d="M34.3,44a2.41,2.41,0,0,1-1.83-.7,2.69,2.69,0,0,1-.67-1.94,3,3,0,0,1,.62-2,2.06,2.06,0,0,1,1.66-.73,2,2,0,0,1,1.55.64A2.43,2.43,0,0,1,36.21,41v.5H32.62a2.06,2.06,0,0,0,.46,1.39,1.62,1.62,0,0,0,1.24.48A4.22,4.22,0,0,0,36,43v.7a3.8,3.8,0,0,1-.8.26,4.79,4.79,0,0,1-.9.08Zm-.21-4.71a1.29,1.29,0,0,0-1,.4,1.83,1.83,0,0,0-.44,1.12h2.73A1.74,1.74,0,0,0,35,39.68a1.16,1.16,0,0,0-1-.39Z"></path>
		<path class="logoCls logoCls2" d="M43.86,38.64a3,3,0,0,1,.63.06l-.11.73a2.68,2.68,0,0,0-.57-.07,1.39,1.39,0,0,0-1.08.51,1.85,1.85,0,0,0-.45,1.27v2.77h-.79V38.73h.65l.09,1h0a2.36,2.36,0,0,1,.7-.78,1.58,1.58,0,0,1,.9-.27Z"></path>
		<path class="logoCls logoCls2" d="M49.31,37.33a.52.52,0,0,1,.13-.39.48.48,0,0,1,.33-.12.44.44,0,0,1,.32.13.63.63,0,0,1,0,.79.45.45,0,0,1-.32.13.45.45,0,0,1-.33-.13.53.53,0,0,1-.13-.39Zm.85,6.58h-.79V38.73h.79Z"></path>
		<path class="logoCls logoCls2" d="M59,43.91l-.15-.73h0a2.19,2.19,0,0,1-.78.66A2.44,2.44,0,0,1,57,44a1.76,1.76,0,0,1-1.22-.39,1.44,1.44,0,0,1-.44-1.13c0-1,.84-1.6,2.53-1.64l.89,0v-.32a1.31,1.31,0,0,0-.27-.9,1.09,1.09,0,0,0-.84-.29,3.45,3.45,0,0,0-1.48.39l-.24-.6a3.52,3.52,0,0,1,.84-.32,3.59,3.59,0,0,1,.92-.12,2,2,0,0,1,1.38.41,1.69,1.69,0,0,1,.45,1.31V43.9H59Zm-1.79-.56a1.62,1.62,0,0,0,1.16-.4,1.46,1.46,0,0,0,.42-1.12v-.47l-.79,0a2.94,2.94,0,0,0-1.36.29.87.87,0,0,0-.41.8.8.8,0,0,0,.26.64,1.09,1.09,0,0,0,.72.23Z"></path>
		<path class="logoCls logoCls2" d="M65.88,43.91h-.79V36.56h.79Z"></path>
		<path class="logoCls logoCls2" d="M79.61,43.36a2.24,2.24,0,0,0,.41,0l.31-.06v.6a1.75,1.75,0,0,1-.38.1,2.35,2.35,0,0,1-.45,0c-1,0-1.51-.52-1.51-1.58V39.34h-.75V39l.75-.32.33-1.1h.45v1.2h1.51v.61H78.77v3a1,1,0,0,0,.23.72.78.78,0,0,0,.62.25Z"></path>
		<path class="logoCls logoCls2" d="M89.78,41.32a2.82,2.82,0,0,1-.64,2,2.28,2.28,0,0,1-1.78.71,2.38,2.38,0,0,1-1.24-.32,2.14,2.14,0,0,1-.84-.93A3.24,3.24,0,0,1,85,41.32a2.82,2.82,0,0,1,.64-2,2.26,2.26,0,0,1,1.77-.71,2.17,2.17,0,0,1,1.74.73A2.84,2.84,0,0,1,89.78,41.32Zm-4,0a2.42,2.42,0,0,0,.4,1.51,1.6,1.6,0,0,0,2.36,0A2.43,2.43,0,0,0,89,41.31a2.31,2.31,0,0,0-.41-1.5,1.43,1.43,0,0,0-1.19-.52,1.38,1.38,0,0,0-1.17.51,2.44,2.44,0,0,0-.4,1.51Z"></path>
		<path class="logoCls logoCls2" d="M101.65,43.91V37h.81v6.17h3.07v.73Z"></path>
		<path class="logoCls logoCls2" d="M110.43,37.33a.52.52,0,0,1,.13-.39.48.48,0,0,1,.33-.12.44.44,0,0,1,.32.13.63.63,0,0,1,0,.79.48.48,0,0,1-.66,0,.53.53,0,0,1-.13-.39Zm.85,6.58h-.79V38.73h.79Z"></path>
		<path class="logoCls logoCls2" d="M119.24,39.34h-1.32v4.56h-.79V39.34h-.93V39l.93-.28v-.29q0-1.91,1.68-1.91a3.44,3.44,0,0,1,1,.17l-.2.63a2.65,2.65,0,0,0-.78-.15.74.74,0,0,0-.66.3,1.68,1.68,0,0,0-.21,1v.34h1.32v.61Z"></path>
		<path class="logoCls logoCls2" d="M126.3,44a2.41,2.41,0,0,1-1.83-.7,2.69,2.69,0,0,1-.67-1.94,3,3,0,0,1,.62-2,2.06,2.06,0,0,1,1.67-.73,2,2,0,0,1,1.55.64,2.43,2.43,0,0,1,.57,1.68v.5h-3.59a2.07,2.07,0,0,0,.46,1.39,1.62,1.62,0,0,0,1.24.48A4.23,4.23,0,0,0,128,43v.7a3.81,3.81,0,0,1-.8.26,4.79,4.79,0,0,1-.9.08Zm-.21-4.71a1.29,1.29,0,0,0-1,.4,1.83,1.83,0,0,0-.44,1.12h2.73a1.74,1.74,0,0,0-.33-1.14,1.16,1.16,0,0,0-1-.39Z"></path>
	</g>
</svg>