<?xml version="1.0" encoding="UTF-8"?>
<svg id="Layer_2" xmlns="http://www.w3.org/2000/svg" viewBox="0 0 23.33 23">
  <defs>
    <style>
      .cls-1 {
        fill: #b2b2b2;
      }
    </style>
  </defs>
  <g id="Layer_1-2" data-name="Layer_1">
    <path class="cls-1" d="M22.41,0c-5.47.43-9.84,4.7-10.28,10.06-.04.49.38.9.88.9h9.44c.48,0,.87-.38.88-.85,0,0,0,0,0,0V.86c0-.49-.42-.9-.92-.86h0Z"/>
    <path class="cls-1" d="M12.13,12.94c.44,5.36,4.81,9.62,10.27,10.06.47.03.88-.33.92-.8,0-.02,0-.04,0-.06v-9.24c0-.48-.39-.86-.88-.86h-9.44c-.5,0-.92.41-.88.9h0Z"/>
    <path class="cls-1" d="M10.15.16H.88c-.48,0-.88.38-.88.86v9.07c0,.48.39.86.88.86h9.26c.48,0,.88-.38.88-.86V1.03c0-.48-.4-.87-.88-.86Z"/>
    <path class="cls-1" d="M10.15,12.04H.88c-.48,0-.88.38-.88.86v9.07c0,.48.39.86.88.86h9.26c.48,0,.88-.38.88-.86v-9.07c0-.48-.4-.87-.88-.86Z"/>
  </g>
</svg>