<?xml version="1.0" encoding="utf-8"?>
<!-- Generator: Adobe Illustrator 27.0.0, SVG Export Plug-In . SVG Version: 6.00 Build 0)  -->
<svg version="1.1" id="Layer_1" xmlns="http://www.w3.org/2000/svg" xmlns:xlink="http://www.w3.org/1999/xlink" x="0px" y="0px"
	 viewBox="0 0 429.1 35.1" style="enable-background:new 0 0 429.1 35.1;" xml:space="preserve">
<style type="text/css">
	.st0{fill:#2D3A80;}
	.st1{fill:#221E1F;}
</style>
<path class="st0" d="M17.5,35C8.1,35,0,27.8,0,17.7C-0.1,8.3,7.4,0.6,16.8,0.5c0.1,0,0.2,0,0.2,0c7.3,0,11.7,3.1,14.6,7.2l-6.8,4.6
	c-1.6-2.6-4.5-4.2-7.6-4c-5,0-8,4.1-8,9.4s3.1,9.5,8.3,9.5c4.4,0,6.5-2,7.9-4.6l7,4.5C29,32.6,24.3,35,17.5,35z"/>
<path class="st0" d="M35.3,0.9h9V27h14.3v7.6H35.3V0.9z"/>
<path class="st0" d="M69.4,34.5h-8.8L76.9,0.3c0.2-0.3,0.4-0.3,0.6,0l16.3,34.3h-9.3l-1.3-2.9H70.6L69.4,34.5L69.4,34.5z M76.9,17.1
	l-3.4,7.8h6.8L76.9,17.1L76.9,17.1z"/>
<path class="st0" d="M103,34.9c-0.2,0.3-0.4,0.3-0.6,0l-15.8-34h9.6l6.9,15.7l6.7-15.7h9.2L103,34.9z"/>
<path class="st0" d="M122.2,0.9h9v33.7h-9V0.9z"/>
<path class="st0" d="M134.6,28.8l6.5-4.9c1.6,2.3,4.2,3.7,7,3.7c2.7,0,4.3-0.8,4.3-2.7c0-1.4-1.1-2.1-3.3-2.9l-4-1.3
	c-4.9-1.6-8.4-4.6-8.4-10.1c0-6.6,5.5-10.1,11.5-10.1s9.2,2.1,11.2,4.5l-5.1,5.4c-1.4-1.6-3.4-2.5-5.6-2.4c-2.2,0-3.3,1-3.3,2.3
	s0.7,1.9,2.4,2.5l4.5,1.5c6.7,2.2,9,5.5,9,10.2c0,6.2-3.9,10.6-12.8,10.6c-7.6,0-11.9-3.5-14-6.2L134.6,28.8z"/>
<path class="st1" d="M208,24.2l-4.3-11.1h-0.1c0.1,0.9,0.1,1.9,0.1,3.2v8h-1.4V11.6h2.2l4,10.4h0.1l4-10.4h2.2v12.6h-1.5v-8.1
	c0-0.9,0-1.9,0.1-3h-0.1L209,24.2H208L208,24.2z"/>
<path class="st1" d="M231,24.2l-0.3-1.3h-0.1c-0.4,0.5-0.9,0.9-1.4,1.2c-0.6,0.2-1.2,0.3-1.8,0.3c-0.8,0-1.6-0.2-2.2-0.7
	c-0.6-0.5-0.8-1.3-0.8-2.1c0-1.9,1.5-2.9,4.6-3h1.6V18c0-0.6-0.1-1.2-0.5-1.6s-1-0.6-1.5-0.5c-0.9,0-1.8,0.3-2.7,0.7l-0.4-1.1
	c0.5-0.3,1-0.5,1.5-0.6s1.1-0.2,1.7-0.2c0.9-0.1,1.8,0.2,2.5,0.8c0.6,0.7,0.9,1.5,0.8,2.4v6.4L231,24.2L231,24.2z M227.8,23.2
	c0.8,0,1.5-0.2,2.1-0.7c0.5-0.5,0.8-1.3,0.8-2v-0.9l-1.4,0.1c-0.8,0-1.7,0.2-2.4,0.5c-0.5,0.3-0.8,0.9-0.8,1.5
	c0,0.4,0.1,0.9,0.5,1.2C226.8,23.1,227.3,23.2,227.8,23.2L227.8,23.2z"/>
<path class="st1" d="M245.1,23.2c0.2,0,0.5,0,0.7,0l0.6-0.1v1.1c-0.2,0.1-0.4,0.2-0.7,0.2s-0.5,0.1-0.8,0.1c-1.8,0-2.7-1-2.7-2.9V16
	h-1.4v-0.7l1.4-0.6l0.6-2h0.8v2.2h2.7V16h-2.7v5.5c0,0.5,0.1,0.9,0.4,1.3C244.3,23.1,244.7,23.2,245.1,23.2L245.1,23.2z"/>
<path class="st1" d="M259.3,24.4c-1.2,0.1-2.5-0.4-3.3-1.3c-0.9-1-1.3-2.2-1.2-3.5c0-1.3,0.4-2.6,1.2-3.6c0.7-0.9,1.8-1.4,3-1.3
	c1.1,0,2.1,0.4,2.8,1.2c0.7,0.9,1.1,2,1,3.1v0.9h-6.5c0,0.9,0.3,1.8,0.8,2.5c0.6,0.6,1.4,0.9,2.2,0.9c1,0,2.1-0.2,3-0.6V24
	c-0.5,0.2-0.9,0.4-1.4,0.5C260.4,24.4,259.8,24.4,259.3,24.4L259.3,24.4z M258.9,15.8c-0.7,0-1.3,0.2-1.8,0.7
	c-0.5,0.6-0.8,1.3-0.8,2h4.9c0-0.7-0.2-1.5-0.6-2.1C260.2,16,259.6,15.7,258.9,15.8L258.9,15.8z"/>
<path class="st1" d="M276.6,14.6c0.4,0,0.8,0,1.1,0.1l-0.2,1.3c-0.3-0.1-0.7-0.1-1-0.1c-0.8,0-1.5,0.3-2,0.9s-0.8,1.5-0.8,2.3v5
	h-1.4v-9.4h1.2l0.2,1.8h0.1c0.3-0.6,0.8-1.1,1.3-1.4C275.5,14.8,276,14.6,276.6,14.6z"/>
<path class="st1" d="M286.5,12.2c0-0.3,0.1-0.5,0.2-0.7c0.2-0.2,0.4-0.2,0.6-0.2s0.4,0.1,0.6,0.2c0.2,0.2,0.3,0.4,0.2,0.7
	c0,0.3-0.1,0.5-0.2,0.7c-0.2,0.2-0.4,0.2-0.6,0.2s-0.4-0.1-0.6-0.2C286.5,12.7,286.4,12.5,286.5,12.2L286.5,12.2z M288,24.2h-1.4
	v-9.5h1.4V24.2L288,24.2z"/>
<path class="st1" d="M303.9,24.2l-0.3-1.3h-0.1c-0.4,0.5-0.9,0.9-1.4,1.2c-0.6,0.2-1.2,0.3-1.8,0.3c-0.8,0-1.6-0.2-2.2-0.7
	s-0.8-1.3-0.8-2.1c0-1.9,1.5-2.9,4.6-3h1.6V18c0-0.6-0.1-1.2-0.5-1.6s-1-0.6-1.5-0.5c-0.9,0-1.8,0.3-2.7,0.7l-0.4-1.1
	c0.5-0.3,1-0.5,1.5-0.6s1.1-0.2,1.7-0.2c0.9-0.1,1.8,0.2,2.5,0.8c0.6,0.7,0.9,1.5,0.8,2.4v6.4L303.9,24.2L303.9,24.2z M300.7,23.2
	c0.8,0,1.5-0.2,2.1-0.7c0.5-0.5,0.8-1.3,0.8-2v-0.9l-1.4,0.1c-0.9,0-1.7,0.2-2.5,0.5c-0.5,0.3-0.8,0.9-0.8,1.5
	c0,0.4,0.1,0.9,0.5,1.2C299.7,23.1,300.2,23.3,300.7,23.2L300.7,23.2z"/>
<path class="st1" d="M316.4,24.2H315V10.8h1.4V24.2z"/>
<path class="st1" d="M341.2,23.2c0.2,0,0.5,0,0.7,0l0.6-0.1v1.1c-0.2,0.1-0.4,0.2-0.7,0.2c-0.3,0-0.5,0.1-0.8,0.1
	c-1.8,0-2.7-1-2.7-2.9V16h-1.4v-0.7l1.4-0.6l0.6-2h0.8v2.2h2.7V16h-2.7v5.5c0,0.5,0.1,0.9,0.4,1.3C340.4,23.1,340.8,23.2,341.2,23.2
	L341.2,23.2z"/>
<path class="st1" d="M359.6,19.5c0.1,1.3-0.3,2.6-1.2,3.6c-0.8,0.9-2,1.4-3.2,1.3c-0.8,0-1.6-0.2-2.2-0.6c-0.7-0.4-1.2-1-1.5-1.7
	c-0.4-0.8-0.6-1.7-0.5-2.6c-0.1-1.3,0.3-2.6,1.1-3.6c0.8-0.9,2-1.3,3.2-1.3c1.2-0.1,2.3,0.4,3.1,1.3
	C359.3,16.9,359.7,18.2,359.6,19.5L359.6,19.5z M352.4,19.5c-0.1,1,0.2,1.9,0.7,2.8c0.5,0.6,1.3,1,2.1,1c0.8,0.1,1.6-0.3,2.1-0.9
	c0.5-0.8,0.8-1.8,0.7-2.8c0.1-1-0.2-1.9-0.7-2.7c-0.5-0.6-1.3-1-2.1-0.9c-0.8-0.1-1.6,0.3-2.1,0.9C352.6,17.6,352.3,18.5,352.4,19.5
	z"/>
<path class="st1" d="M381,24.2V11.6h1.5v11.2h5.5v1.3L381,24.2L381,24.2z"/>
<path class="st1" d="M396.9,12.2c0-0.3,0.1-0.5,0.2-0.7c0.2-0.2,0.4-0.2,0.6-0.2s0.4,0.1,0.6,0.2c0.2,0.2,0.3,0.4,0.2,0.7
	c0,0.3-0.1,0.5-0.2,0.7c-0.2,0.2-0.4,0.2-0.6,0.2s-0.4-0.1-0.6-0.2C397,12.7,396.9,12.5,396.9,12.2L396.9,12.2z M398.5,24.2H397
	v-9.5h1.4L398.5,24.2L398.5,24.2z"/>
<path class="st1" d="M412.8,15.9h-2.4v8.3H409v-8.3h-1.7v-0.6l1.7-0.5v-0.5c0-2.3,1-3.5,3-3.5c0.6,0,1.2,0.1,1.8,0.3l-0.4,1.1
	c-0.4-0.2-0.9-0.3-1.4-0.3s-0.9,0.2-1.2,0.5c-0.3,0.5-0.4,1.1-0.4,1.7v0.6h2.4V15.9L412.8,15.9z"/>
<path class="st1" d="M425.6,24.4c-1.2,0.1-2.4-0.4-3.3-1.3c-0.8-1-1.3-2.2-1.2-3.5c-0.1-1.3,0.3-2.5,1.1-3.6c0.7-0.9,1.8-1.4,3-1.3
	c1.1,0,2.1,0.4,2.8,1.2c0.7,0.9,1.1,2,1,3.1v0.9h-6.5c0,0.9,0.3,1.8,0.8,2.5c0.6,0.6,1.4,0.9,2.2,0.9c1,0,2.1-0.2,3-0.6V24
	c-0.5,0.2-0.9,0.4-1.4,0.5C426.6,24.4,426.1,24.4,425.6,24.4L425.6,24.4z M425.2,15.8c-0.7,0-1.3,0.2-1.8,0.7
	c-0.5,0.6-0.8,1.3-0.8,2h4.9c0-0.7-0.2-1.5-0.6-2.1C426.5,16,425.9,15.7,425.2,15.8L425.2,15.8z"/>
</svg>
